<svg width="24" height="25" viewBox="0 0 24 25" fill="none" xmlns="http://www.w3.org/2000/svg">
<path d="M23.6493 13.2334C23.6493 12.2441 23.569 11.5221 23.3953 10.7734H12.0981V15.2388H18.7293C18.5957 16.3485 17.8737 18.0196 16.2694 19.1426L16.2469 19.2921L19.8188 22.0592L20.0663 22.0839C22.3391 19.9849 23.6493 16.8966 23.6493 13.2334Z" fill="#4285F4"/>
<path d="M12.0982 24.9984C15.3469 24.9984 18.0742 23.9288 20.0663 22.0839L16.2694 19.1425C15.2533 19.8511 13.8896 20.3458 12.0982 20.3458C8.91625 20.3458 6.21565 18.2469 5.25297 15.3457L5.11186 15.3577L1.39769 18.2321L1.34912 18.3671C3.32777 22.2977 7.39208 24.9984 12.0982 24.9984Z" fill="#34A853"/>
<path d="M5.25319 15.3457C4.99918 14.597 4.85217 13.7948 4.85217 12.9659C4.85217 12.137 4.99918 11.3348 5.23983 10.5862L5.2331 10.4267L1.47239 7.5061L1.34935 7.56463C0.533852 9.19572 0.065918 11.0274 0.065918 12.9659C0.065918 14.9045 0.533852 16.736 1.34935 18.3671L5.25319 15.3457Z" fill="#FBBC05"/>
<path d="M12.0986 5.58611C14.358 5.58611 15.8821 6.56208 16.7512 7.37767L20.147 4.06203C18.0614 2.12348 15.3474 0.933594 12.0986 0.933594C7.39257 0.933594 3.32826 3.63419 1.34961 7.56477L5.24009 10.5863C6.21614 7.68514 8.91674 5.58611 12.0986 5.58611Z" fill="#EB4335"/>
</svg>
