<svg width="98" height="101" viewBox="0 0 98 101" fill="none" xmlns="http://www.w3.org/2000/svg">
<path fill-rule="evenodd" clip-rule="evenodd" d="M0.988351 97.5816C0.929676 71.2494 21.1823 49.8576 46.2239 49.8018L71.5783 49.7453L71.5801 50.5881C71.6113 64.5909 60.2851 75.9677 46.2823 75.9989C34.9998 76.0241 25.875 85.6621 25.9014 97.5261L0.988351 97.5816Z" fill="white"/>
<path fill-rule="evenodd" clip-rule="evenodd" d="M0.980198 93.7252C0.906036 60.4429 28.7308 33.4001 63.1286 33.3235L67.4634 33.3138L63.1683 51.1345L71.5818 51.1158L71.049 57.4111L63.1823 57.4287C42.5436 57.4747 25.8488 73.7003 25.8933 93.6697L25.9019 97.5265L0.988792 97.582L0.980198 93.7252Z" fill="#DBD7D8"/>
<path fill-rule="evenodd" clip-rule="evenodd" d="M0.970952 89.5601C0.893824 54.9463 29.2282 26.823 64.2575 26.7449L79.7479 26.7104L79.7693 36.2895C79.7883 44.8446 72.8685 51.7954 64.3133 51.8145C43.2957 51.8613 26.2951 68.7353 26.3414 89.5036L26.3593 97.5258L0.988828 97.5824L0.970952 89.5601Z" fill="#FBFBFB"/>
<path fill-rule="evenodd" clip-rule="evenodd" d="M0.921706 67.5331C0.843359 32.3724 29.1767 3.80574 64.206 3.72769L68.6205 3.71785L64.5115 23.7301L79.7411 23.6962L79.7532 29.1588L64.2628 29.1933C43.2452 29.2401 26.2452 46.3801 26.2922 67.4766L26.3591 97.526L0.988664 97.5825L0.921706 67.5331Z" fill="#DBD7D8"/>
<path fill-rule="evenodd" clip-rule="evenodd" d="M0.917856 64.5986C0.839073 29.2423 29.1974 0.517112 64.258 0.438989L97.7769 0.3643C97.8084 14.5068 86.3692 25.9971 72.2267 26.0286L64.315 26.0462C43.2787 26.0931 26.2637 43.3282 26.311 64.542L26.382 96.4189C26.3874 98.8461 24.4242 100.818 21.997 100.824L5.3935 100.861C2.96631 100.866 0.994294 98.9027 0.988886 96.4755L0.917856 64.5986Z" fill="#F5F5F5"/>
</svg>
