<svg width="108" height="98" viewBox="0 0 108 98" fill="none" xmlns="http://www.w3.org/2000/svg">
<g style="mix-blend-mode:multiply" opacity="0.5">
<path d="M54.3826 97.6106C83.9725 97.6106 107.96 95.1997 107.96 92.2257C107.96 89.2517 83.9725 86.8408 54.3826 86.8408C24.7926 86.8408 0.805176 89.2517 0.805176 92.2257C0.805176 95.1997 24.7926 97.6106 54.3826 97.6106Z" fill="#8BD2E6"/>
</g>
<g style="mix-blend-mode:multiply" opacity="0.5">
<path d="M76.1132 72.9324C89.5397 59.5059 89.5397 37.7372 76.1132 24.3107C62.6867 10.8842 40.918 10.8842 27.4915 24.3107C14.065 37.7372 14.065 59.5059 27.4915 72.9324C40.918 86.3589 62.6867 86.3589 76.1132 72.9324Z" fill="#8BD2E6"/>
</g>
<g style="mix-blend-mode:multiply" opacity="0.5">
<path d="M79.1089 11.9832C79.1089 11.9832 79.8431 7.26646 81.911 7.45124C82.4833 7.50206 82.8726 8.08217 83.1266 8.70483C83.1602 8.7889 83.2193 8.86036 83.2955 8.90919C83.3718 8.95802 83.4614 8.98178 83.5518 8.97715C83.6423 8.97251 83.729 8.93971 83.7998 8.88333C83.8707 8.82696 83.9221 8.74984 83.947 8.66276C84.494 6.7464 85.6131 3.82178 87.3469 3.82178C89.1402 3.82178 89.1996 7.16824 89.0695 9.20616C89.0653 9.27225 89.083 9.33787 89.1198 9.39293C89.1566 9.44799 89.2104 9.48944 89.2731 9.51088C89.3357 9.53233 89.4037 9.53258 89.4665 9.51161C89.5293 9.49064 89.5835 9.44961 89.6207 9.39483C90.0938 8.69875 90.7841 8.03038 91.6236 8.22416C93.2589 8.6015 92.8186 11.9832 92.8186 11.9832H79.1089Z" fill="#8BD2E6"/>
</g>
<g style="mix-blend-mode:multiply" opacity="0.5">
<path d="M0.191406 42.7112C0.191406 42.7112 0.925663 37.9945 2.9935 38.179C3.56583 38.2298 3.95508 38.8112 4.20915 39.4326C4.24274 39.5167 4.30178 39.5882 4.37801 39.637C4.45425 39.6859 4.54385 39.7096 4.63427 39.705C4.72469 39.7004 4.81141 39.6677 4.88228 39.6113C4.95314 39.555 5.00461 39.4779 5.02948 39.3908C5.57652 37.4744 6.69541 34.5496 8.42943 34.5496C10.2228 34.5496 10.2821 37.896 10.152 39.9339C10.1478 40.0001 10.1654 40.0657 10.2022 40.1208C10.2389 40.1759 10.2928 40.2174 10.3555 40.2389C10.4181 40.2604 10.4861 40.2606 10.5489 40.2397C10.6118 40.2187 10.666 40.1777 10.7032 40.1229C11.1761 39.4265 11.8666 38.7582 12.7061 38.9519C14.3414 39.3295 13.9011 42.7112 13.9011 42.7112H0.191406Z" fill="#8BD2E6"/>
</g>
<g style="mix-blend-mode:multiply" opacity="0.5">
<path d="M92.8389 42.7112C92.8389 42.7112 93.5734 37.9945 95.641 38.179C96.2133 38.2298 96.6025 38.8112 96.8566 39.4326C96.8902 39.5167 96.9492 39.5882 97.0255 39.637C97.1017 39.6859 97.1913 39.7096 97.2817 39.705C97.3722 39.7004 97.4589 39.6677 97.5297 39.6113C97.6006 39.555 97.6521 39.4779 97.6769 39.3908C98.224 37.4744 99.3431 34.5496 101.077 34.5496C102.87 34.5496 102.93 37.896 102.799 39.9339C102.795 40.0001 102.813 40.0657 102.85 40.1208C102.886 40.1759 102.94 40.2174 103.003 40.2389C103.066 40.2604 103.134 40.2606 103.196 40.2397C103.259 40.2187 103.313 40.1777 103.351 40.1229C103.824 39.4265 104.514 38.7584 105.354 38.9522C106.989 39.3293 106.549 42.7112 106.549 42.7112H92.8389Z" fill="#8BD2E6"/>
</g>
<g style="mix-blend-mode:multiply" opacity="0.5">
<path d="M16.106 8.78057C16.106 8.78057 16.8402 4.06382 18.908 4.2486C19.4804 4.29942 19.8696 4.87929 20.1237 5.50219C20.1573 5.58635 20.2163 5.6579 20.2926 5.7068C20.3689 5.7557 20.4586 5.7795 20.549 5.77486C20.6395 5.77023 20.7263 5.73738 20.7972 5.68094C20.8681 5.62449 20.9195 5.54728 20.9443 5.46013C21.4913 3.54377 22.6102 0.618896 24.3442 0.618896C26.1376 0.618896 26.1969 3.96536 26.0668 6.00353C26.0626 6.06963 26.0802 6.1353 26.117 6.1904C26.1537 6.24551 26.2076 6.28699 26.2703 6.30847C26.3329 6.32995 26.4009 6.33023 26.4637 6.30926C26.5266 6.28829 26.5808 6.24724 26.618 6.19244C27.0909 5.49611 27.7814 4.82774 28.6209 5.02152C30.2562 5.39886 29.8159 8.78057 29.8159 8.78057H16.106Z" fill="#8BD2E6"/>
</g>
<path d="M58.234 36.301C58.234 36.301 62.3485 42.9244 65.0038 44.2855C67.659 45.6465 72.3806 48.0423 72.3806 48.0423L71.7346 49.4646C71.7346 49.4646 66.1954 49.0494 62.8671 46.9847C60.4796 45.5033 56.7402 42.0508 56.7402 42.0508C56.7402 42.0508 56.9274 38.2889 58.234 36.301Z" fill="#FDB48C"/>
<path d="M42.7495 68.03C42.7053 68.4771 42.6617 68.9335 42.6299 69.3568C42.5646 69.9097 42.5625 70.4683 42.6236 71.0218C42.7605 71.8574 42.6762 72.7144 42.379 73.5073C42.1645 74.0806 40.7116 83.0655 40.7884 84.4039C40.8652 85.7424 41.362 85.9714 41.1706 86.6215C40.9793 87.2717 40.4767 87.233 40.7855 87.8832C40.8505 88.0171 40.8784 88.1661 40.8661 88.3145C40.8538 88.463 40.8019 88.6054 40.7157 88.7268H45.3503C45.3989 88.3818 45.2786 88.0575 45.415 87.9216C45.644 87.6918 45.6824 86.8892 45.415 86.5844C45.1475 86.2795 45.3663 85.782 45.6009 85.2075C45.8356 84.633 45.3673 84.0227 45.6009 83.4871C45.8346 82.9515 46.6382 77.4076 46.8295 77.0638C47.0208 76.72 47.8412 75.651 47.9763 72.8963C48.0687 71.0108 49.395 68.2642 49.4288 68.1941C49.4271 68.2039 49.4152 68.2705 49.3933 68.385V68.3884C49.3904 68.404 49.3875 68.42 49.3841 68.437V68.4382C49.1623 69.6247 48.2119 74.7903 48.1106 76.5287C47.9958 78.498 48.378 79.2809 48.2635 79.6254C48.149 79.97 48.1677 80.9065 48.2061 81.3843C48.2498 81.7459 48.2563 82.111 48.2256 82.474C48.1871 82.5885 47.6907 82.9517 47.7473 83.6016C47.804 84.2515 48.4164 84.5768 48.6267 85.1124C48.7189 85.3468 49.352 85.4161 50.0612 85.3512C50.9734 85.2683 52.0109 84.9622 52.1828 84.5002C52.4881 83.678 52.1633 83.4679 52.3931 83.1808C52.6228 82.8936 52.2017 82.5882 52.1828 82.0721C52.1638 81.5559 52.4881 80.8868 52.4881 80.4088C52.5273 79.6031 52.6427 78.803 52.8326 78.0191C53.024 77.2739 53.2914 74.597 53.7505 73.1635C54.1806 71.8195 54.3583 70.8781 55.0391 69.1141C55.0843 68.9955 55.1323 68.8733 55.183 68.7475C55.2715 68.5136 55.3446 68.2742 55.4018 68.0308L42.7495 68.03Z" fill="#1D3B5E"/>
<g style="mix-blend-mode:multiply" opacity="0.3">
<path d="M49.4959 68.03H42.7495C42.7053 68.4771 42.6617 68.9335 42.6299 69.3568C43.4624 69.5207 45.739 69.9264 47.4855 69.8348C47.4855 69.8348 47.4585 72.747 46.7804 74.8479C46.1023 76.9488 45.2615 79.1637 45.2243 80.6534C45.1871 82.1431 44.8771 83.4895 44.8978 84.2107C44.9185 84.9318 44.766 85.1224 44.7276 85.9245C44.6892 86.7266 44.8387 86.3449 44.8978 87.1088C44.9326 87.561 44.706 88.2007 44.5625 88.7268H45.3522C45.4009 88.3818 45.2805 88.0575 45.4169 87.9216C45.6459 87.6918 45.6843 86.8892 45.4169 86.5844C45.1495 86.2795 45.3683 85.782 45.6029 85.2075C45.8375 84.633 45.3692 84.0227 45.6029 83.4871C45.8365 82.9515 46.6401 77.4076 46.8314 77.0638C47.0228 76.72 47.8431 75.651 47.9783 72.8963C48.0707 71.0108 49.397 68.2642 49.4308 68.1941C49.4291 68.2051 49.413 68.2914 49.3855 68.4373C49.4276 68.2865 49.4655 68.1465 49.4959 68.03Z" fill="#1D3B5E"/>
</g>
<g style="mix-blend-mode:multiply" opacity="0.3">
<path d="M49.4887 68.03L49.3932 68.384V68.3874C49.3903 68.403 49.3873 68.419 49.3839 68.4361V68.4373C49.1622 69.6238 48.2118 74.7893 48.1104 76.5277C47.9957 78.4971 48.3779 79.28 48.2633 79.6245C48.1488 79.969 48.1675 80.9055 48.206 81.3833C48.2497 81.7449 48.2562 82.1101 48.2254 82.473C48.187 82.5875 47.6905 82.9508 47.7472 83.6006C47.8038 84.2505 48.4163 84.5758 48.6266 85.1115C48.7187 85.3458 49.3518 85.4151 50.0611 85.3505C49.7708 84.8737 49.2475 84.3551 49.577 83.7857C49.9969 83.0597 49.3477 81.7993 49.2475 80.7302C49.1474 79.6612 49.8824 79.393 49.577 77.1013C49.2716 74.8095 49.8824 73.357 50.0353 71.8302C50.1177 70.933 50.4682 70.0814 51.0414 69.3862C52.0562 69.472 54.0562 69.2588 55.0399 69.1134C55.0851 68.9948 55.1331 68.8726 55.1838 68.7468C55.2723 68.5129 55.3454 68.2735 55.4027 68.03H49.4887Z" fill="#1D3B5E"/>
</g>
<path d="M47.7637 94.831C47.7107 94.8863 47.6526 94.9365 47.5901 94.9808C47.1316 95.3151 46.2135 95.6158 45.0492 95.3661C43.7107 95.0795 42.6973 94.5828 42.0856 93.2251C41.4739 91.8675 41.409 91.8514 41.0015 91.2477C40.5217 90.5498 40.318 89.6985 40.4299 88.859C40.434 88.8298 40.4374 88.8009 40.4421 88.7707C40.5947 87.7197 40.3492 87.1174 41.2174 86.6448C41.2588 86.7743 41.2484 86.9149 41.1885 87.0369C41.1885 87.0369 41.063 87.318 41.417 87.6436C41.571 87.7917 41.7638 87.8933 41.9731 87.9365C42.2069 87.9888 42.4671 87.9912 42.8123 88.054C42.8123 88.054 42.8308 87.6924 44.3035 87.7248C45.7761 87.7571 45.7097 88.3841 45.8709 88.7702C46.2923 89.78 46.8269 91.7911 47.496 92.5937C47.7852 92.9385 47.9649 93.3618 48.012 93.8094C48.0419 93.9876 48.0354 94.1701 47.9927 94.3457C47.95 94.5213 47.8721 94.6864 47.7637 94.831Z" fill="white"/>
<path d="M47.7635 94.8312C47.4005 95.2136 46.3871 95.653 45.0489 95.3661C43.7107 95.0792 42.6976 94.5824 42.0856 93.225C41.4737 91.8676 41.4088 91.8509 41.0017 91.2474C40.5217 90.5496 40.3179 89.6984 40.4299 88.8589C40.5045 89.3315 40.7355 90.5015 41.2638 90.9693C41.9329 91.5618 42.8884 93.8176 43.8257 94.4295C44.2797 94.7063 44.7922 94.8729 45.3222 94.9158C45.5176 94.9362 45.7148 94.8998 45.8901 94.8111C46.0654 94.7223 46.2115 94.585 46.3108 94.4154L47.0419 94.2863C47.1048 94.3308 47.176 94.3623 47.2513 94.3789C47.3266 94.3956 47.4044 94.397 47.4802 94.3831C47.5561 94.3692 47.6283 94.3403 47.6929 94.2981C47.7574 94.2559 47.8128 94.2012 47.8559 94.1373C47.9214 94.0357 47.9738 93.9262 48.0117 93.8115C48.0414 93.9894 48.0347 94.1715 47.992 94.3467C47.9494 94.522 47.8716 94.6868 47.7635 94.8312Z" fill="#1D3B5E"/>
<path opacity="0.2" d="M47.5901 94.9808C47.1316 95.3151 46.2135 95.6158 45.0492 95.3661C43.7107 95.0795 42.6973 94.5828 42.0856 93.2251C41.4739 91.8675 41.409 91.8514 41.0015 91.2477C40.5217 90.5498 40.318 89.6985 40.4299 88.859C40.434 88.8298 40.4374 88.8009 40.4421 88.7707C40.5947 87.7197 40.3492 87.1174 41.2174 86.6448C41.2588 86.7743 41.2484 86.9149 41.1885 87.0369C41.1885 87.0369 41.063 87.318 41.417 87.6436C41.571 87.7917 41.7638 87.8933 41.9731 87.9365C41.8059 88.2925 41.741 88.688 41.7857 89.0787C41.8304 89.4694 41.9829 89.84 42.2262 90.149C43.1547 91.4257 43.2959 92.9348 44.2116 93.5733C45.1272 94.2118 45.0701 94.7629 46.7533 94.734C47.0515 94.7243 47.3449 94.8108 47.5901 94.9808Z" fill="#1D3B5E"/>
<path d="M58.5491 88.3614C58.5412 88.4716 58.5268 88.5813 58.5061 88.6899C58.4927 88.7628 58.476 88.8413 58.4533 88.9262C58.2851 89.5554 57.8324 90.4625 56.6175 90.5972C54.8973 90.7881 52.0488 89.3927 51.3029 89.4302C50.5569 89.4676 47.7475 89.6026 47.04 88.8953C46.6342 88.4898 46.7765 87.9831 46.9778 87.491C47.1437 87.169 47.2613 86.8244 47.3267 86.4681C47.3651 85.7606 48.0539 84.3023 48.0539 84.3023L48.5025 84.5848C48.5025 84.5848 48.2948 85.0003 49.4677 85.1683C50.4713 85.3115 50.6058 85.2413 51.1793 85.0249C51.3668 84.9568 51.5452 84.8661 51.7108 84.755C51.9116 84.6119 52.0955 84.4464 52.2588 84.2617C52.5073 84.0023 52.891 84.7864 53.368 85.3981C53.845 86.0098 56.1015 87.214 56.942 87.5391C57.7825 87.8642 58.5676 88.0555 58.5491 88.3614Z" fill="white"/>
<path d="M58.4528 88.9264C58.2848 89.5556 57.8323 90.463 56.6174 90.5977C54.897 90.7888 52.0482 89.3935 51.3028 89.4319C50.5573 89.4703 47.747 89.6038 47.0397 88.897C46.6337 88.491 46.7759 87.9848 46.9777 87.4927C47.1406 87.8396 47.5323 88.4859 48.2252 88.6111C49.1807 88.7832 51.0159 88.5731 51.9334 88.9551C52.851 89.3371 56.1396 90.1596 57.0764 90.1022C58.0132 90.0448 58.4523 88.9271 58.4523 88.9271L58.4528 88.9264Z" fill="#1D3B5E"/>
<path opacity="0.2" d="M58.5061 88.6903C58.4927 88.7632 58.476 88.8418 58.4533 88.9266C58.2851 89.5558 57.8324 90.463 56.6175 90.5976C54.8973 90.7885 52.0488 89.3932 51.3029 89.4306C50.5569 89.4681 47.7475 89.603 47.04 88.8957C46.6342 88.4902 46.7765 87.9835 46.9778 87.4914C47.1437 87.1694 47.2613 86.8248 47.3267 86.4685C47.3651 85.761 48.0539 84.3027 48.0539 84.3027L48.5025 84.5852C48.5025 84.5852 48.2948 85.0008 49.4677 85.1688C50.4713 85.312 50.6058 85.2417 51.1793 85.0253C51.3668 84.9572 51.5452 84.8666 51.7108 84.7554C51.7108 84.7554 51.7903 85.1797 50.6877 85.9923C49.5851 86.8048 50.1363 87.5884 50.6877 87.8495C51.2392 88.1107 52.1387 87.9655 53.909 88.691C55.6792 89.4165 57.909 89.9383 58.5061 88.6903Z" fill="#1D3B5E"/>
<path d="M58.3849 36.9132L57.0494 43.5113C56.8378 43.5318 56.6242 43.5174 56.4172 43.4688C56.4189 43.4885 56.4214 43.5077 56.4233 43.5274C56.6487 45.7992 56.5036 48.7941 56.7044 50.9572C57.0032 54.1666 56.6399 66.6453 56.4722 67.1306C56.0832 68.2521 53.6679 68.4017 51.2077 68.5313C51.0725 68.5381 50.9366 68.5449 50.8009 68.5522C50.3074 68.5782 49.8172 68.6059 49.3453 68.6416C46.3912 68.869 41.6512 67.9366 41.6512 67.9366C41.6512 67.9366 41.3621 59.2081 41.3696 53.3545C41.3713 51.531 41.4022 49.9859 41.48 49.0713C41.8048 45.223 42.5836 41.1751 42.7997 39.3251C42.8868 38.8356 42.8598 38.3327 42.7207 37.8554C42.5626 37.4335 42.3044 37.4102 42.3044 37.4102C40.6198 34.7258 37.6582 34.0231 37.6582 34.0231C37.6582 34.0231 39.4737 30.639 40.2332 29.711C40.9928 28.7829 41.1736 28.1678 42.4214 27.0365C42.8849 26.7301 43.3857 26.4842 43.9115 26.3047C44.3796 26.1189 44.6672 25.9911 45.1099 25.8479C45.1744 25.8274 45.2415 25.8065 45.3139 25.7849C45.5651 25.7095 45.7837 25.649 45.9862 25.6001C46.6627 25.4511 47.35 25.356 48.0416 25.3159C48.8795 25.2388 49.7239 25.3567 50.5087 25.6604C50.5087 25.6604 50.9081 25.8223 51.3064 25.9828L52.1056 26.3064C52.1192 26.3139 52.2716 26.3638 52.5126 26.4428L52.7255 26.5126C52.9337 26.5811 53.1814 26.664 53.4501 26.7557C54.5974 27.1471 56.1214 27.7012 56.5135 28.0253C57.0397 28.4608 57.6854 30.2663 57.8935 31.8206C58.0631 32.8258 58.181 33.8391 58.2468 34.8564C58.3356 35.9716 58.3849 36.9132 58.3849 36.9132Z" fill="#3A59C9"/>
<path d="M51.4488 29.7246C48.5361 29.7958 45.954 26.9043 45.1099 25.8486C45.1743 25.8282 45.2414 25.8073 45.3138 25.7856C45.565 25.7103 45.7836 25.6497 45.9864 25.6008C46.6627 25.4516 47.3498 25.3563 48.0413 25.3159C48.8792 25.2388 49.7236 25.3568 50.5084 25.6607C50.5084 25.6607 50.9078 25.8223 51.3061 25.9828L52.1052 26.3064C52.1189 26.3139 52.2715 26.3638 52.5122 26.4431C52.5772 26.464 52.6486 26.4873 52.7252 26.5128C52.9333 26.5811 53.1811 26.6641 53.4498 26.756C53.7121 28.0253 53.625 29.6716 51.4488 29.7246Z" fill="#2A38B2"/>
<path d="M55.9395 31.6958C55.9801 32.3766 56.707 37.5769 57.3703 41.1191C57.2112 41.9082 57.104 42.7069 57.0491 43.51C56.8375 43.5305 56.6239 43.5161 56.417 43.4675L55.9395 31.6958Z" fill="#2A38B2"/>
<path d="M58.8961 36.7954C58.8517 37.0281 58.7413 37.607 58.5205 38.3699L57.0496 43.5105C57.0097 43.5574 56.9594 43.5944 56.9026 43.6184C56.8458 43.6424 56.7843 43.6528 56.7228 43.6486C56.6613 43.6445 56.6016 43.626 56.5486 43.5946C56.4956 43.5632 56.4506 43.5198 56.4174 43.4679L56.2876 40.2685L58.247 34.8547V34.856C58.6824 35.6734 59.0355 36.2279 58.8961 36.7954Z" fill="#2A38B2"/>
<path d="M52.6025 34.4001L55.462 34.3806C55.462 34.3806 55.8656 37.1501 54.5296 37.3128C52.6025 37.5474 52.6025 34.4001 52.6025 34.4001Z" fill="#2A38B2"/>
<path d="M55.4017 33.5891H52.5423L52.4287 32.7095H55.2882L55.4017 33.5891Z" fill="#2A38B2"/>
<path d="M51.4388 29.5859H51.0366C51.2263 32.258 51.5076 36.8242 51.6607 42.2088C51.8689 49.5417 51.8715 59.8213 50.8008 68.5511C50.9367 68.5436 51.0724 68.5368 51.2075 68.53C52.2727 59.7899 52.2698 49.5247 52.0612 42.1974C51.9087 36.8264 51.6289 32.2669 51.4388 29.5859Z" fill="#2A38B2"/>
<path d="M37.1738 34.6343C37.1738 34.6343 41.4286 36.9859 42.3068 38.715L43.1843 37.8814C43.1843 37.8814 40.8789 34.3803 37.6586 33.5891L37.1738 34.6343Z" fill="#2A38B2"/>
<path d="M46.5796 18.2486L45.5472 14.8649C45.5472 14.8649 45.0901 13.1455 46.323 12.0254C47.9496 10.5481 48.8886 10.5061 50.7089 10.2192C52.4266 9.94856 55.9848 10.5634 56.6447 12.5994C57.0981 13.9991 54.8424 14.9821 54.8424 14.9821C54.8424 14.9821 48.5927 14.5493 47.8876 15.4956C47.1825 16.4419 47.555 18.4207 47.555 18.4207C47.555 18.4207 47.6406 18.9945 46.5796 18.2486Z" fill="#122040"/>
<path d="M54.3794 14.1385C54.3794 14.1385 54.5722 14.9652 54.784 16.0707C55.0447 15.7971 55.236 15.465 55.3418 15.1022C55.4475 14.7393 55.4647 14.3564 55.3918 13.9856L54.3794 14.1385Z" fill="#122040"/>
<path d="M45.4045 19.9115C45.9612 21.7051 47.2985 21.2796 47.2985 21.2796C47.6077 24.2482 46.7519 25.6212 46.7519 25.6212C48.3704 27.5633 50.0728 27.5974 51.2182 27.5731C51.4666 27.5685 51.7143 27.5464 51.9595 27.5069C52.025 27.4957 52.0836 27.4595 52.1228 27.4058C52.1619 27.3522 52.1786 27.2853 52.1693 27.2195C51.9289 25.3829 52.977 23.5996 52.977 23.5996C47.129 22.7729 47.3835 18.5509 47.3835 18.5509L46.9508 18.2417C45.9612 17.6232 44.8484 18.1179 45.4045 19.9115Z" fill="#FDB48C"/>
<path d="M48.2868 21.8288C49.7169 23.4398 51.8679 23.8624 53.1592 23.5635C53.19 23.5563 53.2209 23.5487 53.2508 23.5407C53.4291 23.4951 53.6008 23.4266 53.7614 23.3367C53.8062 23.3106 53.8495 23.2821 53.8912 23.2514C54.1301 23.0559 54.3276 22.8147 54.4721 22.5419C54.9253 21.7459 54.9284 20.901 54.8574 19.9963L54.6824 17.9881V17.974L54.7432 16.839L54.8569 14.7165C54.7295 14.6119 54.6011 14.5147 54.4716 14.4247C51.3855 12.2837 47.7074 14.2207 47.7074 14.2207C47.7074 14.2207 46.131 19.3994 48.2868 21.8288Z" fill="#FDB48C"/>
<path d="M51.0867 17.7981C51.0867 18.0517 50.9569 18.2572 50.7966 18.2572C50.6364 18.2572 50.5068 18.0517 50.5068 17.7981C50.5068 17.5446 50.6367 17.3394 50.7966 17.3394C50.9566 17.3394 51.0867 17.5448 51.0867 17.7981Z" fill="#122040"/>
<path d="M54.1036 17.8077C54.1036 18.0613 53.974 18.2667 53.8137 18.2667C53.6535 18.2667 53.5239 18.0613 53.5239 17.8077C53.5239 17.5541 53.6535 17.3489 53.8137 17.3489C53.974 17.3489 54.1036 17.5543 54.1036 17.8077Z" fill="#122040"/>
<path d="M52.1101 19.4672C52.0757 19.4672 52.0424 19.4548 52.0163 19.4323C51.9903 19.4097 51.9732 19.3786 51.9683 19.3445C51.9633 19.3104 51.9709 19.2756 51.9895 19.2466C52.0081 19.2176 52.0365 19.1963 52.0695 19.1866L52.6453 19.0164L51.9764 17.2608C51.9642 17.2256 51.9662 17.187 51.9819 17.1533C51.9976 17.1196 52.0258 17.0933 52.0606 17.08C52.0954 17.0667 52.134 17.0675 52.1682 17.0822C52.2024 17.0969 52.2295 17.1243 52.2439 17.1586L52.9679 19.0589C52.9749 19.0774 52.978 19.0971 52.9771 19.1168C52.9761 19.1365 52.9711 19.1558 52.9623 19.1735C52.9536 19.1912 52.9412 19.2069 52.9261 19.2196C52.911 19.2323 52.8935 19.2418 52.8745 19.2474L52.1505 19.4613C52.1374 19.4652 52.1238 19.4671 52.1101 19.4672Z" fill="#E98C78"/>
<path d="M51.125 15.7411L51.1072 16.241C50.6793 16.112 50.2207 16.1291 49.8036 16.2896C49.1539 16.5638 49.1092 16.6946 49.1092 16.6946L48.9453 16.4046C48.9453 16.4046 49.5721 15.3893 51.125 15.7411Z" fill="#122040"/>
<path d="M49.1165 13.2591C49.1165 13.2591 48.79 15.766 47.7125 16.2608C47.7125 16.2608 47.5573 17.6979 47.8873 18.8095L47.2495 19.4146L47.0144 17.2595C46.8739 16.0323 47.2066 14.7976 47.9447 13.8071C48.3324 13.2936 48.7611 12.9585 49.1165 13.2591Z" fill="#122040"/>
<path d="M47.8877 21.28C47.8877 21.28 47.9388 23.769 50.1906 24.8803C50.5749 25.0631 50.8868 25.3693 51.0769 25.75C51.329 26.3243 51.379 26.9671 51.2188 27.5735C51.4714 27.5689 51.7233 27.5461 51.9725 27.5054C52.035 27.4948 52.0908 27.4602 52.1281 27.409C52.1655 27.3578 52.1813 27.2941 52.1724 27.2314C51.9261 25.3907 52.9786 23.6 52.9786 23.6C51.995 23.7733 50.9819 23.6443 50.0731 23.2302C49.1642 22.816 48.4023 22.136 47.8877 21.28Z" fill="#E98C78"/>
<path d="M46.0127 18.9015C46.0127 18.9015 47.1841 18.8512 46.7859 20.4887C46.7859 20.4887 46.8683 19.3034 46.0127 18.9015Z" fill="#E98C78"/>
<path d="M46.7519 19.9965C46.7519 19.9965 46.5759 19.4684 46.1533 19.6953C46.1533 19.6953 46.2396 19.4067 46.6829 19.4789L46.7519 19.9965Z" fill="#E98C78"/>
<path d="M54.5725 16.5375L54.4344 16.8813C54.2215 16.599 53.9092 16.4083 53.5608 16.3478C53.3353 16.2931 53.099 16.3015 52.8779 16.3722L52.8687 15.9029C53.1823 15.7959 53.5232 15.8006 53.8338 15.9162C54.1443 16.0319 54.4053 16.2514 54.5725 16.5375Z" fill="#122040"/>
<path opacity="0.5" d="M55.3701 17.5859C55.3725 17.9528 55.3134 18.3457 55.0693 18.4495C54.8582 18.5167 54.6372 18.5475 54.4158 18.5405C54.1992 18.5451 53.9648 18.5354 53.7498 18.5218C53.3346 18.494 52.9925 18.4488 52.9925 18.4488C52.9713 18.4181 52.9519 18.3863 52.9341 18.3535C52.8517 18.1907 52.7956 18.016 52.7678 17.8356C52.7201 17.5364 52.7082 17.2325 52.7323 16.9305L53.691 16.9122L54.3888 16.8984L55.3056 16.8806C55.3056 16.8806 55.31 16.9069 55.3176 16.9536C55.3497 17.1629 55.3673 17.3742 55.3701 17.5859Z" fill="white"/>
<path opacity="0.3" d="M54.389 16.8992L52.9339 18.3543C52.8515 18.1915 52.7953 18.0168 52.7676 17.8364L53.6915 16.9125L54.389 16.8992Z" fill="white"/>
<path opacity="0.3" d="M55.3702 17.586L54.4159 18.5405C54.1993 18.5452 53.9649 18.5354 53.75 18.5218L55.3182 16.9536C55.3502 17.1629 55.3676 17.3743 55.3702 17.586Z" fill="white"/>
<path opacity="0.5" d="M51.4538 18.4495C51.2363 18.518 51.0088 18.549 50.781 18.5412C50.5639 18.5446 50.3302 18.5349 50.1163 18.5205C49.709 18.4931 49.3767 18.4495 49.3767 18.4495C49.353 18.4152 49.3314 18.3793 49.312 18.3423C49.2312 18.1778 49.1763 18.0017 49.1494 17.8203C49.104 17.5262 49.093 17.2278 49.1165 16.9312L50.0567 16.913L50.7548 16.8996L51.6903 16.8813C51.6903 16.8813 51.6937 16.9013 51.7 16.937C51.7324 17.1458 51.7504 17.3565 51.7538 17.5677C51.7584 17.9395 51.7017 18.344 51.4538 18.4495Z" fill="white"/>
<path opacity="0.3" d="M50.7548 16.8997L49.3121 18.3424C49.2312 18.1778 49.1763 18.0018 49.1494 17.8204L50.0568 16.913L50.7548 16.8997Z" fill="white"/>
<path opacity="0.3" d="M51.7539 17.5677L50.7814 18.5402C50.5643 18.5436 50.3307 18.5339 50.1167 18.5195L51.7005 16.936C51.7328 17.1451 51.7507 17.3562 51.7539 17.5677Z" fill="white"/>
<path d="M51.4775 18.6982H49.3622C49.3413 18.6981 49.3207 18.6936 49.3018 18.6848C49.2828 18.6759 49.266 18.6631 49.2526 18.6471C49.2361 18.6274 48.8446 18.1484 48.8731 16.8781C48.8739 16.8407 48.8894 16.8051 48.9162 16.7789C48.9429 16.7528 48.9788 16.7381 49.0163 16.738H51.7534C51.7874 16.738 51.8203 16.75 51.8462 16.772C51.8721 16.7939 51.8894 16.8244 51.8949 16.8579C51.9025 16.9043 52.0778 18.0052 51.5908 18.642C51.5774 18.6594 51.5603 18.6734 51.5406 18.6832C51.521 18.6929 51.4994 18.698 51.4775 18.6982ZM49.4374 18.4115H51.4036C51.688 17.979 51.655 17.2982 51.6275 17.0257H49.1573C49.1297 17.5039 49.2262 17.9811 49.4374 18.411V18.4115Z" fill="#122040"/>
<path d="M55.1213 18.6982H53.0061C52.9852 18.6981 52.9647 18.6936 52.9458 18.6848C52.9269 18.676 52.9101 18.6633 52.8967 18.6473C52.8799 18.6274 52.4884 18.1484 52.5171 16.8781C52.518 16.8407 52.5334 16.805 52.5602 16.7789C52.5869 16.7527 52.6229 16.738 52.6603 16.738H55.398C55.4319 16.738 55.4647 16.7501 55.4906 16.772C55.5165 16.794 55.5337 16.8244 55.5393 16.8579C55.547 16.9043 55.7221 18.0052 55.2351 18.642C55.2217 18.6594 55.2044 18.6735 55.1847 18.6833C55.165 18.693 55.1433 18.6981 55.1213 18.6982ZM53.0814 18.4115H55.0474C55.3328 17.978 55.2993 17.298 55.2716 17.0257H52.8011C52.7734 17.5039 52.87 17.9812 53.0814 18.411V18.4115Z" fill="#122040"/>
<path d="M49.0157 17.0253C49.0069 17.0254 48.9981 17.0245 48.9894 17.0229C48.2869 16.8945 47.5771 16.8092 46.8642 16.7674C46.8451 16.7673 46.8262 16.7633 46.8086 16.7558C46.791 16.7483 46.7751 16.7373 46.7618 16.7236C46.7485 16.7098 46.7381 16.6935 46.7313 16.6757C46.7244 16.6578 46.7211 16.6388 46.7218 16.6197C46.7224 16.6005 46.7268 16.5817 46.7348 16.5644C46.7428 16.547 46.7541 16.5314 46.7683 16.5185C46.7824 16.5056 46.7989 16.4956 46.817 16.4892C46.835 16.4828 46.8541 16.4801 46.8732 16.4812C47.6008 16.5226 48.325 16.6095 49.0417 16.7413C49.0768 16.7479 49.1081 16.7673 49.1296 16.7957C49.1512 16.8242 49.1613 16.8597 49.158 16.8952C49.1548 16.9307 49.1384 16.9637 49.112 16.9878C49.0857 17.0119 49.0513 17.0253 49.0157 17.0253Z" fill="#122040"/>
<path d="M52.6622 17.363C52.6413 17.363 52.6206 17.3583 52.6017 17.3494C52.4908 17.286 52.3662 17.2509 52.2386 17.2471C52.111 17.2434 51.9844 17.271 51.8701 17.3277C51.8388 17.3493 51.8002 17.3575 51.7629 17.3507C51.7255 17.3438 51.6924 17.3224 51.6708 17.2911C51.6493 17.2598 51.641 17.2213 51.6479 17.1839C51.6547 17.1466 51.6762 17.1134 51.7074 17.0919C51.8624 17.0049 52.0371 16.9591 52.2148 16.9587C52.3926 16.9584 52.5674 17.0036 52.7227 17.0899C52.7523 17.1037 52.7763 17.1271 52.7907 17.1564C52.8052 17.1856 52.8092 17.2189 52.8021 17.2508C52.7951 17.2826 52.7773 17.3111 52.7519 17.3315C52.7265 17.3519 52.6948 17.363 52.6622 17.363Z" fill="#122040"/>
<path d="M55.4899 16.7715L54.7785 16.1775L54.7598 16.5254L55.3061 16.9913C55.3354 17.0127 55.3718 17.0222 55.4078 17.0179C55.4439 17.0135 55.477 16.9956 55.5003 16.9678C55.5237 16.94 55.5356 16.9043 55.5337 16.8681C55.5317 16.8318 55.5161 16.7976 55.4899 16.7724V16.7715Z" fill="#122040"/>
<path d="M54.4905 22.5457C54.3527 22.8065 54.164 23.0371 53.9356 23.2238C53.9286 23.2289 53.9223 23.2338 53.9152 23.2384C52.0625 23.888 49.7759 22.8443 49.7214 22.819H49.7202C50.0022 21.5304 49.7202 19.3213 49.7202 19.3213C51.1124 20.2607 52.7392 20.144 53.8231 19.8985C54.16 19.8224 54.4912 19.7226 54.8141 19.5999L54.8588 20.1141C54.9269 20.978 54.9237 21.7857 54.4905 22.5457Z" fill="white"/>
<g opacity="0.5">
<path opacity="0.5" d="M54.4902 22.5456C54.3524 22.8065 54.1638 23.037 53.9354 23.2237C53.9283 23.2288 53.922 23.2337 53.915 23.2383C52.0623 23.888 49.7757 22.8442 49.7212 22.8189C55.0762 24.0956 53.8228 19.8979 53.8228 19.8979C54.1598 19.8218 54.4909 19.7221 54.8138 19.5994L54.8586 20.1136C54.9266 20.9779 54.9235 21.7856 54.4902 22.5456Z" fill="#DBDBDB"/>
</g>
<path d="M49.959 19.7435C48.9194 19.6153 47.5061 18.6737 46.3529 17.69C46.3343 17.6742 46.3111 17.6648 46.2868 17.6629C46.2625 17.6611 46.2382 17.667 46.2174 17.6797C46.1966 17.6925 46.1804 17.7115 46.171 17.734C46.1616 17.7566 46.1596 17.7815 46.1652 17.8052V17.8091C46.171 17.8329 46.1841 17.8544 46.2026 17.8704C47.1183 18.6518 48.6809 19.8278 49.9396 19.9773C49.9442 19.9777 49.9488 19.9777 49.9534 19.9773C49.9695 19.9773 49.9855 19.974 50.0002 19.9675C50.015 19.9611 50.0283 19.9517 50.0392 19.9399C50.0502 19.9281 50.0586 19.9142 50.064 19.899C50.0693 19.8838 50.0715 19.8677 50.0704 19.8516C50.067 19.8236 50.0541 19.7976 50.0338 19.7779C50.0136 19.7582 49.9872 19.746 49.959 19.7435Z" fill="white"/>
<path d="M49.9442 22.1128C49.0694 22.2002 48.1862 22.0841 47.3636 21.7737C47.3455 21.7666 47.326 21.7642 47.3068 21.7665C47.2876 21.7688 47.2692 21.7757 47.2533 21.7868C47.2374 21.7979 47.2244 21.8127 47.2156 21.83C47.2068 21.8472 47.2023 21.8664 47.2027 21.8857V21.8884C47.2029 21.9118 47.2102 21.9346 47.2234 21.9538C47.2366 21.9731 47.2553 21.988 47.2771 21.9966C47.9452 22.2521 48.6556 22.3796 49.3709 22.3725C49.5579 22.3725 49.7536 22.3645 49.9576 22.3482C49.9875 22.3463 50.0156 22.3336 50.0367 22.3122C50.0577 22.2909 50.0702 22.2626 50.0716 22.2327C50.072 22.2162 50.0689 22.1998 50.0626 22.1846C50.0562 22.1693 50.0467 22.1556 50.0347 22.1443C50.0227 22.133 50.0084 22.1243 49.9928 22.1189C49.9772 22.1135 49.9606 22.1114 49.9442 22.1128Z" fill="white"/>
<path d="M37.6484 21.9517C37.6221 22.0247 37.5975 22.0449 37.5779 22.0004V21.9987V21.9974C37.553 21.9105 37.5416 21.8203 37.5441 21.73C37.5046 21.6286 37.4298 21.5448 37.3335 21.494C37.2372 21.4433 37.1259 21.429 37.0199 21.4538C36.6333 21.5396 36.6452 22.0655 36.6452 22.0655C36.6131 21.9514 36.542 21.8522 36.4442 21.7853C36.3465 21.7183 36.2283 21.6878 36.1103 21.6991C35.7478 21.7212 35.7612 22.2809 35.7677 22.6021C35.7677 22.6033 35.7677 22.6048 35.7677 22.606C35.7694 22.6699 35.7702 22.7244 35.7677 22.7628C35.7621 22.8545 35.7415 23.0115 35.7133 23.2082C35.618 23.8803 35.439 25.0171 35.5042 25.6152C35.5371 26.0103 35.6126 26.4006 35.7296 26.7793L35.6921 27.2549C35.6921 27.2549 36.8677 27.828 37.8344 27.5467C37.8465 27.5435 37.8579 27.5378 37.8677 27.5299C37.8775 27.5221 37.8856 27.5123 37.8915 27.5012C37.895 27.4949 37.8969 27.4878 37.8968 27.4805C37.8967 27.4797 37.8967 27.4789 37.8968 27.4781C37.8995 27.4378 37.9086 27.3981 37.9238 27.3607V27.359C37.9571 27.2756 38.0075 27.2001 38.0719 27.1375C38.205 27.0116 38.3646 26.917 38.539 26.8606C39.1876 26.6279 39.6637 26.4387 39.8059 25.809C39.8961 25.5505 39.9699 25.2866 40.0269 25.0188C40.0714 24.6989 40.1351 24.4273 39.6933 24.2306C39.4664 24.1301 39.2291 24.0545 38.9858 24.0052C38.9927 23.6348 39.0628 23.2683 39.1932 22.9216C39.282 22.6476 39.8691 21.0412 39.8983 20.4786C39.9275 19.916 39.9469 19.8068 39.7203 19.7395C39.4937 19.6721 39.1854 20.3563 39.0751 20.8063C38.9883 21.1589 38.6887 22.2651 38.5715 22.2535C38.5715 22.2535 38.5163 21.7898 38.282 21.6916C38.2243 21.6604 38.1604 21.6425 38.095 21.639C38.0296 21.6355 37.9642 21.6466 37.9035 21.6715C37.8429 21.6964 37.7886 21.7345 37.7444 21.7829C37.7003 21.8314 37.6675 21.889 37.6484 21.9517Z" fill="#FDB48C"/>
<path d="M37.3007 24.4252C37.3267 24.4778 37.3594 24.5268 37.3979 24.5711C37.5444 24.7164 37.7239 24.8238 37.9211 24.8843C38.2886 24.9814 38.6719 25.0036 39.0481 24.9494C39.0291 24.946 37.6741 24.8145 37.5333 24.3759C37.5251 24.3514 37.5196 24.3262 37.5171 24.3005C37.5158 24.2847 37.5154 24.2696 37.5151 24.2553C37.5263 23.8079 38.4033 23.9339 38.9858 24.0031C38.9858 24.0031 38.1718 23.6384 37.5355 23.927C37.2462 24.0586 37.2114 24.2463 37.3007 24.4252Z" fill="#E98C78"/>
<path d="M37.2915 24.0171C36.8661 24.1309 36.5913 23.595 36.5913 23.595C36.5913 23.595 36.4698 24.0339 36.0927 23.7997C35.9046 23.6493 35.7712 23.4413 35.7129 23.2077C35.7411 23.011 35.7615 22.8539 35.7674 22.7623C35.7695 22.7239 35.7688 22.6694 35.7674 22.6055C35.805 22.9658 35.983 23.6432 36.2833 23.6254C36.577 23.6079 36.5959 23.0662 36.5967 23.0387C36.6596 23.8501 37.2334 24.0509 37.39 23.5736L37.469 23.1459C37.469 23.1459 37.3501 23.799 37.7153 23.7603C38.0017 23.7302 38.0703 23.5559 38.1603 23.2709C38.1603 23.2709 38.1906 23.64 38.0161 23.7949C37.7919 23.9167 37.5455 23.9923 37.2915 24.0171Z" fill="#E98C78"/>
<path d="M36.953 25.2233C36.9241 25.9986 37.3739 26.1683 37.3739 26.1683C37.2416 25.9218 37.1744 25.6457 37.1787 25.366C37.1829 25.0863 37.2585 24.8123 37.3982 24.57C37.4384 24.5018 37.4836 24.4368 37.5336 24.3755C37.5253 24.3511 37.5198 24.3258 37.5173 24.3001C37.5161 24.2843 37.5156 24.2692 37.5154 24.2549C37.4381 24.3042 37.366 24.3612 37.3002 24.4251C37.0837 24.6349 36.9589 24.9218 36.953 25.2233Z" fill="#E98C78"/>
<path d="M38.1724 35.1128C38.6898 35.3033 39.173 35.5765 39.603 35.9216C40.4237 36.5691 41.1817 37.2923 41.867 38.0816C41.867 38.0816 38.7151 41.5584 37.6592 41.8003C37.4491 41.8436 37.2319 41.8379 37.0244 41.7836C36.817 41.7293 36.6248 41.6279 36.463 41.4872C36.1792 41.3296 35.9087 41.1493 35.6541 40.9481C35.5283 40.8226 35.4107 40.6891 35.302 40.5484C35.1423 40.3645 34.9924 40.1722 34.8529 39.9725C34.0144 37.8643 34.9203 32.7945 35.2057 31.7772C35.4063 31.0646 35.6312 27.9358 35.7292 26.8101C36.3852 27.2419 37.1784 27.414 37.9543 27.2929C37.7827 28.5142 37.7737 29.7528 37.9276 30.9764C38.0913 32.0622 38.1817 33.1579 38.1982 34.256C38.1982 34.256 38.1899 34.8519 38.1739 35.1125" fill="#FDB48C"/>
<path d="M39.2479 35.6676C38.7305 36.6224 37.9229 37.9095 37.9229 37.9095C38.0464 37.237 38.1723 35.1135 38.1723 35.1135C38.568 35.2147 38.9358 35.4042 39.2479 35.6676Z" fill="#E98C78"/>
<path d="M76.4978 13.4186V19.0135C76.4977 19.4256 76.381 19.8292 76.1612 20.1778C75.9413 20.5263 75.6273 20.8054 75.2554 20.9829L73.8474 21.6547L72.5644 20.9982C72.2068 20.8151 71.9066 20.5369 71.697 20.1941C71.4874 19.8513 71.3765 19.4574 71.3765 19.0556V13.4186C71.3951 13.0894 71.5432 12.7811 71.7885 12.5608C72.0338 12.3405 72.3562 12.2262 72.6855 12.2428H75.1897C75.5188 12.2264 75.841 12.3408 76.0861 12.5611C76.3311 12.7814 76.4791 13.0896 76.4978 13.4186Z" fill="white"/>
<path d="M72.8122 12.9727H75.0634C75.2221 12.9727 75.3744 13.0357 75.4866 13.148C75.5989 13.2602 75.662 13.4125 75.662 13.5712V17.7346C75.662 17.8934 75.5989 18.0456 75.4866 18.1579C75.3744 18.2702 75.2221 18.3332 75.0634 18.3332H72.8115C72.6527 18.3332 72.5005 18.2702 72.3882 18.1579C72.276 18.0456 72.2129 17.8934 72.2129 17.7346V13.572C72.2129 13.413 72.276 13.2606 72.3884 13.1482C72.5008 13.0358 72.6533 12.9727 72.8122 12.9727V12.9727Z" fill="#E73F64"/>
<path d="M74.3024 10.7H73.5723V12.2611H74.3024V10.7Z" fill="white"/>
<path d="M69.6019 91.7477C69.4227 91.7477 69.2509 91.6766 69.1242 91.5498C68.9975 91.4231 68.9263 91.2513 68.9263 91.0721V10.1592H70.2776V91.0721C70.2776 91.2513 70.2064 91.4231 70.0797 91.5498C69.953 91.6766 69.7811 91.7477 69.6019 91.7477Z" fill="#1D3B5E"/>
<path d="M74.0919 9.31567H65.3423V10.242H74.0919V9.31567Z" fill="#1D3B5E"/>
<path d="M73.9368 10.7771C74.4881 10.7771 74.9351 10.3302 74.9351 9.77881C74.9351 9.22747 74.4881 8.78052 73.9368 8.78052C73.3854 8.78052 72.9385 9.22747 72.9385 9.77881C72.9385 10.3302 73.3854 10.7771 73.9368 10.7771Z" fill="#1D3B5E"/>
<path d="M66.3408 9.78052C66.3408 9.97797 66.2823 10.171 66.1726 10.3351C66.0629 10.4993 65.907 10.6273 65.7246 10.7028C65.5422 10.7784 65.3414 10.7982 65.1478 10.7596C64.9541 10.7211 64.7762 10.626 64.6366 10.4864C64.497 10.3468 64.4019 10.1689 64.3634 9.97528C64.3249 9.78163 64.3447 9.58091 64.4202 9.39849C64.4958 9.21608 64.6237 9.06016 64.7879 8.95047C64.9521 8.84078 65.1451 8.78223 65.3425 8.78223C65.6073 8.78229 65.8612 8.88749 66.0484 9.07469C66.2356 9.2619 66.3408 9.51578 66.3408 9.78052Z" fill="#1D3B5E"/>
<path d="M64.1089 91.7178C64.0145 91.7176 63.9216 91.6947 63.838 91.651C63.7544 91.6073 63.6825 91.5441 63.6286 91.4668C63.5746 91.3894 63.54 91.3002 63.5279 91.2066C63.5157 91.113 63.5262 91.0179 63.5586 90.9293C63.861 90.2076 64.3009 89.5516 64.8538 88.9979C65.7048 88.1311 67.2178 87.0983 69.6014 87.0983C70.4901 87.0759 71.3743 87.231 72.2023 87.5546C73.0303 87.8781 73.7854 88.3636 74.4235 88.9826C74.991 89.5299 75.4481 90.1811 75.7699 90.9009C75.8251 91.0451 75.8213 91.2053 75.7591 91.3467C75.697 91.4881 75.5816 91.5993 75.4379 91.6562C75.2943 91.713 75.1341 91.7109 74.992 91.6504C74.8499 91.5898 74.7374 91.4757 74.679 91.3327C74.6304 91.2097 73.395 88.2714 69.6014 88.2714C65.8611 88.2714 64.706 91.2133 64.6588 91.3376C64.6165 91.4492 64.5413 91.5454 64.443 91.6133C64.3448 91.6812 64.2283 91.7177 64.1089 91.7178Z" fill="#1D3B5E"/>
<path d="M74.5463 25.8993C74.4773 24.1772 74.3106 22.4605 74.0469 20.7573L73.6822 20.8191C73.6972 20.9093 75.1816 29.8854 73.0695 34.4519C72.2547 36.2134 70.389 37.5925 68.4138 39.0525C66.8244 40.2273 65.1801 41.442 63.9579 42.9494C62.7456 44.3712 62.0693 46.1727 62.0464 48.041C62.1724 47.9845 62.3037 47.9406 62.4383 47.91C62.5745 43.9202 65.6435 41.5609 68.634 39.3503C70.6484 37.8614 72.5511 36.4549 73.4057 34.6075C74.3141 32.644 74.698 29.7143 74.5463 25.8993Z" fill="white"/>
<path d="M9.47389 71.7932H6.59473V91.7881H9.47389V71.7932Z" fill="#1D3B5E"/>
<path d="M9.47357 71.7932H8.75391V91.7881H9.47357V71.7932Z" fill="#122040"/>
<path d="M8.27417 93.3037C9.70329 93.3037 10.8618 92.1452 10.8618 90.7161C10.8618 89.2869 9.70329 88.1284 8.27417 88.1284C6.84505 88.1284 5.68652 89.2869 5.68652 90.7161C5.68652 92.1452 6.84505 93.3037 8.27417 93.3037Z" fill="#D1D1D1"/>
<path d="M5.20752 90.7163C5.20765 91.4026 5.48037 92.0606 5.96568 92.5458C6.451 93.031 7.10917 93.3035 7.79541 93.3035C7.87613 93.3035 7.95636 93.2996 8.03538 93.292C7.39335 93.2325 6.79671 92.9353 6.36235 92.4588C5.92798 91.9823 5.68721 91.3607 5.68721 90.7159C5.68721 90.0712 5.92798 89.4496 6.36235 88.9731C6.79671 88.4966 7.39335 88.1994 8.03538 88.1398C7.95636 88.1323 7.87613 88.1284 7.79541 88.1284C7.45555 88.1284 7.11902 88.1953 6.80503 88.3253C6.49104 88.4554 6.20574 88.646 5.96542 88.8863C5.72511 89.1266 5.53449 89.4119 5.40445 89.7259C5.2744 90.0399 5.20749 90.3765 5.20752 90.7163Z" fill="white"/>
<g style="mix-blend-mode:multiply" opacity="0.5">
<path d="M9.47389 71.7932H6.59473V76.9128H9.47389V71.7932Z" fill="#1D3B5E"/>
</g>
<path d="M9.63809 87.5083H6.91016C6.58547 87.5083 6.32227 87.7715 6.32227 88.0962V88.2834C6.32227 88.6081 6.58547 88.8713 6.91016 88.8713H9.63809C9.96277 88.8713 10.226 88.6081 10.226 88.2834V88.0962C10.226 87.7715 9.96277 87.5083 9.63809 87.5083Z" fill="#2B557C"/>
<path d="M8.43249 91.3506H8.01309C7.84024 91.3506 7.66908 91.3166 7.50938 91.2505C7.34968 91.1844 7.20457 91.0874 7.08233 90.9652C6.9601 90.843 6.86313 90.6979 6.79698 90.5382C6.73083 90.3785 6.69678 90.2074 6.69678 90.0345V88.2988H9.74856V90.0345C9.74859 90.2074 9.71457 90.3785 9.64845 90.5382C9.58232 90.6979 9.48538 90.843 9.36317 90.9652C9.24095 91.0874 9.09586 91.1844 8.93617 91.2505C8.77648 91.3166 8.60533 91.3506 8.43249 91.3506Z" fill="#2B557C"/>
<path d="M26.3566 71.7932H23.4019V91.7477H26.3566V71.7932Z" fill="#1D3B5E"/>
<path d="M26.3568 71.7932H25.5024V91.7477H26.3568V71.7932Z" fill="#122040"/>
<path d="M26.971 92.7225C28.1172 91.8069 28.3042 90.1355 27.3886 88.9893C26.4731 87.8431 24.8017 87.6562 23.6555 88.5717C22.5093 89.4873 22.3223 91.1587 23.2378 92.3049C24.1534 93.4511 25.8248 93.6381 26.971 92.7225Z" fill="white"/>
<path d="M22.1655 90.6474C22.1657 91.3519 22.4456 92.0274 22.9438 92.5255C23.4419 93.0236 24.1175 93.3034 24.822 93.3034C24.9049 93.3034 24.9873 93.2995 25.0685 93.2917C24.4094 93.2307 23.7968 92.9257 23.3508 92.4365C22.9048 91.9474 22.6576 91.3093 22.6576 90.6473C22.6576 89.9853 22.9048 89.3472 23.3508 88.8581C23.7968 88.3689 24.4094 88.0639 25.0685 88.0029C24.9873 87.9951 24.9049 87.991 24.822 87.991C24.1174 87.991 23.4418 88.2708 22.9436 88.769C22.4454 89.2672 22.1655 89.9429 22.1655 90.6474Z" fill="#D1D1D1"/>
<path d="M23.894 90.7253C23.894 91.006 23.9773 91.2804 24.1332 91.5138C24.2892 91.7471 24.5108 91.929 24.7701 92.0364C25.0294 92.1439 25.3148 92.172 25.5901 92.1172C25.8654 92.0624 26.1182 91.9273 26.3167 91.7288C26.5152 91.5303 26.6503 91.2775 26.7051 91.0022C26.7598 90.7269 26.7317 90.4415 26.6243 90.1822C26.5169 89.9229 26.335 89.7013 26.1016 89.5453C25.8683 89.3894 25.5939 89.3062 25.3132 89.3062C24.9368 89.3062 24.5759 89.4557 24.3097 89.7218C24.0436 89.988 23.894 90.3489 23.894 90.7253Z" fill="#D1D1D1"/>
<g style="mix-blend-mode:multiply" opacity="0.5">
<path d="M26.3566 71.7932H23.4019V76.9128H26.3566V71.7932Z" fill="#1D3B5E"/>
</g>
<path d="M26.6772 87.5083H23.9492C23.6245 87.5083 23.3613 87.7715 23.3613 88.0962V88.2834C23.3613 88.6081 23.6245 88.8713 23.9492 88.8713H26.6772C27.0018 88.8713 27.265 88.6081 27.265 88.2834V88.0962C27.265 87.7715 27.0018 87.5083 26.6772 87.5083Z" fill="#2B557C"/>
<path d="M25.4708 91.3506H25.0514C24.8786 91.3506 24.7074 91.3166 24.5477 91.2505C24.3881 91.1844 24.243 91.0874 24.1207 90.9652C23.9985 90.843 23.9016 90.6979 23.8355 90.5382C23.7693 90.3785 23.7353 90.2074 23.7354 90.0345V88.2988H26.7871V90.0345C26.7871 90.2074 26.7531 90.3785 26.6869 90.5382C26.6208 90.6979 26.5238 90.843 26.4016 90.9652C26.2793 91.0874 26.1342 91.1844 25.9745 91.2505C25.8148 91.3166 25.6437 91.3506 25.4708 91.3506Z" fill="#2B557C"/>
<path d="M84.7465 71.7932H81.791V91.7477H84.7465V71.7932Z" fill="#1D3B5E"/>
<path d="M84.7464 71.7932H84.0078V91.7477H84.7464V71.7932Z" fill="#122040"/>
<g style="mix-blend-mode:multiply" opacity="0.5">
<path d="M84.7465 71.7932H81.791V76.4779H84.7465V71.7932Z" fill="#1D3B5E"/>
</g>
<path d="M85.393 92.5254C86.4303 91.4881 86.4303 89.8063 85.393 88.769C84.3557 87.7317 82.6738 87.7317 81.6365 88.769C80.5992 89.8063 80.5992 91.4881 81.6365 92.5254C82.6738 93.5628 84.3557 93.5628 85.393 92.5254Z" fill="#D1D1D1"/>
<path d="M80.3672 90.6474C80.3673 91.3519 80.6473 92.0274 81.1454 92.5255C81.6436 93.0236 82.3192 93.3034 83.0236 93.3034C83.1065 93.3034 83.189 93.2995 83.2702 93.2917C82.611 93.2307 81.9984 92.9257 81.5524 92.4365C81.1065 91.9474 80.8592 91.3093 80.8592 90.6473C80.8592 89.9853 81.1065 89.3472 81.5524 88.8581C81.9984 88.3689 82.611 88.0639 83.2702 88.0029C83.189 87.9951 83.1065 87.991 83.0236 87.991C82.3191 87.991 81.6434 88.2708 81.1452 88.769C80.6471 89.2672 80.3672 89.9429 80.3672 90.6474Z" fill="white"/>
<path d="M84.8788 87.5083H82.1509C81.8262 87.5083 81.563 87.7715 81.563 88.0962V88.2834C81.563 88.6081 81.8262 88.8713 82.1509 88.8713H84.8788C85.2035 88.8713 85.4667 88.6081 85.4667 88.2834V88.0962C85.4667 87.7715 85.2035 87.5083 84.8788 87.5083Z" fill="#2B557C"/>
<path d="M83.673 91.3506H83.2536C82.9045 91.3506 82.5698 91.212 82.323 90.9651C82.0762 90.7183 81.9375 90.3836 81.9375 90.0345V88.2988H84.99V90.0345C84.99 90.2075 84.9559 90.3787 84.8897 90.5384C84.8235 90.6981 84.7265 90.8433 84.6042 90.9655C84.4819 91.0877 84.3367 91.1846 84.1769 91.2507C84.0171 91.3168 83.8459 91.3507 83.673 91.3506Z" fill="#2B557C"/>
<path d="M101.095 71.7932H98.2153V91.7876H101.095V71.7932Z" fill="#1D3B5E"/>
<path d="M99.0478 71.7932H98.2153V91.7876H99.0478V71.7932Z" fill="#122040"/>
<g style="mix-blend-mode:multiply" opacity="0.5">
<path d="M101.095 71.7932H98.2153V76.4888H101.095V71.7932Z" fill="#1D3B5E"/>
</g>
<path d="M101.908 92.5454C102.919 91.5347 102.919 89.896 101.908 88.8852C100.897 87.8745 99.2588 87.8745 98.2481 88.8852C97.2373 89.896 97.2373 91.5347 98.2481 92.5454C99.2588 93.5561 100.897 93.5561 101.908 92.5454Z" fill="white"/>
<path d="M97.0107 90.7156C97.0109 91.402 97.2836 92.0602 97.769 92.5455C98.2544 93.0308 98.9127 93.3035 99.5991 93.3035C99.6801 93.3035 99.7603 93.2996 99.8393 93.292C99.1959 93.234 98.5974 92.9374 98.1616 92.4605C97.7257 91.9836 97.4841 91.3609 97.4841 90.7148C97.4841 90.0688 97.7257 89.4461 98.1616 88.9692C98.5974 88.4923 99.1959 88.1957 99.8393 88.1376C99.7603 88.1301 99.6801 88.1262 99.5991 88.1262C99.2591 88.1263 98.9225 88.1933 98.6084 88.3234C98.2943 88.4536 98.009 88.6443 97.7686 88.8848C97.5282 89.1252 97.3376 89.4106 97.2076 89.7248C97.0775 90.0389 97.0106 90.3756 97.0107 90.7156Z" fill="#D1D1D1"/>
<path d="M98.6953 90.7911C98.6953 91.0646 98.7764 91.332 98.9284 91.5594C99.0803 91.7869 99.2963 91.9641 99.549 92.0688C99.8017 92.1735 100.08 92.2009 100.348 92.1475C100.616 92.0941 100.863 91.9624 101.056 91.769C101.25 91.5756 101.381 91.3292 101.435 91.0609C101.488 90.7927 101.461 90.5146 101.356 90.2619C101.251 90.0092 101.074 89.7932 100.847 89.6413C100.619 89.4893 100.352 89.4082 100.078 89.4082C99.7115 89.4082 99.3597 89.5539 99.1004 89.8133C98.841 90.0726 98.6953 90.4244 98.6953 90.7911Z" fill="#D1D1D1"/>
<path d="M101.442 87.5083H98.7144C98.3897 87.5083 98.1265 87.7715 98.1265 88.0962V88.2834C98.1265 88.6081 98.3897 88.8713 98.7144 88.8713H101.442C101.767 88.8713 102.03 88.6081 102.03 88.2834V88.0962C102.03 87.7715 101.767 87.5083 101.442 87.5083Z" fill="#2B557C"/>
<path d="M100.236 91.3506H99.8166C99.6437 91.3506 99.4726 91.3166 99.3129 91.2505C99.1532 91.1844 99.0081 91.0874 98.8859 90.9652C98.7637 90.843 98.6667 90.6979 98.6006 90.5382C98.5345 90.3785 98.5005 90.2074 98.5005 90.0345V88.2988H101.552V90.0345C101.552 90.2074 101.518 90.3785 101.452 90.5382C101.386 90.6979 101.289 90.843 101.167 90.9652C101.044 91.0874 100.899 91.1844 100.74 91.2505C100.58 91.3166 100.409 91.3506 100.236 91.3506Z" fill="#2B557C"/>
<path d="M100.27 38.1895H83.5943C82.4662 38.1895 81.5518 39.1039 81.5518 40.232V65.3854C81.5518 66.5135 82.4662 67.4279 83.5943 67.4279H100.27C101.398 67.4279 102.313 66.5135 102.313 65.3854V40.232C102.313 39.1039 101.398 38.1895 100.27 38.1895Z" fill="#122040"/>
<path d="M97.5595 38.1895H80.8834C79.7553 38.1895 78.8408 39.1039 78.8408 40.232V65.3854C78.8408 66.5135 79.7553 67.4279 80.8834 67.4279H97.5595C98.6876 67.4279 99.602 66.5135 99.602 65.3854V40.232C99.602 39.1039 98.6876 38.1895 97.5595 38.1895Z" fill="#1D3B5E"/>
<path d="M81.0385 63.2445C80.8613 63.2445 80.6915 63.1741 80.5662 63.0489C80.441 62.9236 80.3706 62.7537 80.3706 62.5766V40.4711C80.3706 40.3834 80.3879 40.2965 80.4214 40.2155C80.455 40.1345 80.5042 40.0609 80.5662 39.9988C80.6282 39.9368 80.7019 39.8876 80.7829 39.8541C80.8639 39.8205 80.9508 39.8032 81.0385 39.8032C81.1262 39.8032 81.213 39.8205 81.2941 39.8541C81.3751 39.8876 81.4487 39.9368 81.5108 39.9988C81.5728 40.0609 81.622 40.1345 81.6555 40.2155C81.6891 40.2965 81.7064 40.3834 81.7064 40.4711V62.5766C81.7064 62.7537 81.636 62.9236 81.5108 63.0489C81.3855 63.1741 81.2156 63.2445 81.0385 63.2445Z" fill="#122040"/>
<path d="M83.769 63.2445C83.5918 63.2445 83.4219 63.1741 83.2967 63.0489C83.1714 62.9236 83.1011 62.7537 83.1011 62.5766V40.4711C83.1011 40.3834 83.1184 40.2965 83.1519 40.2155C83.1855 40.1345 83.2347 40.0609 83.2967 39.9988C83.3587 39.9368 83.4323 39.8876 83.5134 39.8541C83.5944 39.8205 83.6813 39.8032 83.769 39.8032C83.8567 39.8032 83.9435 39.8205 84.0245 39.8541C84.1056 39.8876 84.1792 39.9368 84.2412 39.9988C84.3032 40.0609 84.3524 40.1345 84.386 40.2155C84.4196 40.2965 84.4368 40.3834 84.4368 40.4711V62.5766C84.4368 62.7537 84.3665 62.9236 84.2412 63.0489C84.116 63.1741 83.9461 63.2445 83.769 63.2445Z" fill="#122040"/>
<path d="M86.4994 63.2445C86.3223 63.2445 86.1524 63.1741 86.0272 63.0489C85.9019 62.9236 85.8315 62.7537 85.8315 62.5766V40.4711C85.8315 40.3834 85.8488 40.2965 85.8824 40.2155C85.9159 40.1345 85.9651 40.0609 86.0272 39.9988C86.0892 39.9368 86.1628 39.8876 86.2438 39.8541C86.3249 39.8205 86.4117 39.8032 86.4994 39.8032C86.5871 39.8032 86.674 39.8205 86.755 39.8541C86.836 39.8876 86.9097 39.9368 86.9717 39.9988C87.0337 40.0609 87.0829 40.1345 87.1165 40.2155C87.15 40.2965 87.1673 40.3834 87.1673 40.4711V62.5766C87.1673 62.7537 87.0969 62.9236 86.9717 63.0489C86.8464 63.1741 86.6766 63.2445 86.4994 63.2445Z" fill="#122040"/>
<path d="M89.2299 63.2445C89.0528 63.2445 88.8829 63.1741 88.7576 63.0489C88.6324 62.9236 88.562 62.7537 88.562 62.5766V40.4711C88.562 40.3834 88.5793 40.2965 88.6129 40.2155C88.6464 40.1345 88.6956 40.0609 88.7576 39.9988C88.8196 39.9368 88.8933 39.8876 88.9743 39.8541C89.0553 39.8205 89.1422 39.8032 89.2299 39.8032C89.3176 39.8032 89.4044 39.8205 89.4855 39.8541C89.5665 39.8876 89.6401 39.9368 89.7022 39.9988C89.7642 40.0609 89.8134 40.1345 89.8469 40.2155C89.8805 40.2965 89.8978 40.3834 89.8978 40.4711V62.5766C89.8978 62.6643 89.8805 62.7512 89.8469 62.8322C89.8134 62.9132 89.7642 62.9869 89.7022 63.0489C89.6401 63.1109 89.5665 63.1601 89.4855 63.1936C89.4044 63.2272 89.3176 63.2445 89.2299 63.2445Z" fill="#122040"/>
<path d="M92.6287 40.4718C92.6287 40.103 92.3297 39.804 91.9609 39.804C91.592 39.804 91.293 40.103 91.293 40.4718V62.5771C91.293 62.946 91.592 63.245 91.9609 63.245C92.3297 63.245 92.6287 62.946 92.6287 62.5771V40.4718Z" fill="#122040"/>
<path d="M94.6908 63.2445C94.5137 63.2445 94.3438 63.1741 94.2186 63.0489C94.0933 62.9236 94.0229 62.7537 94.0229 62.5766V40.4711C94.0229 40.3834 94.0402 40.2965 94.0738 40.2155C94.1073 40.1345 94.1565 40.0609 94.2186 39.9988C94.2806 39.9368 94.3542 39.8876 94.4352 39.8541C94.5163 39.8205 94.6031 39.8032 94.6908 39.8032C94.7785 39.8032 94.8654 39.8205 94.9464 39.8541C95.0274 39.8876 95.101 39.9368 95.163 39.9989C95.225 40.0609 95.2742 40.1345 95.3077 40.2155C95.3413 40.2966 95.3585 40.3834 95.3585 40.4711V62.5766C95.3585 62.6643 95.3413 62.7511 95.3077 62.8322C95.2742 62.9132 95.225 62.9868 95.163 63.0489C95.101 63.1109 95.0274 63.1601 94.9464 63.1936C94.8654 63.2272 94.7785 63.2445 94.6908 63.2445Z" fill="#122040"/>
<path d="M97.4215 63.2445C97.3338 63.2445 97.247 63.2272 97.166 63.1936C97.085 63.1601 97.0114 63.1109 96.9494 63.0489C96.8874 62.9868 96.8382 62.9132 96.8047 62.8322C96.7711 62.7511 96.7539 62.6643 96.7539 62.5766V40.4711C96.7539 40.3834 96.7711 40.2966 96.8047 40.2155C96.8382 40.1345 96.8874 40.0609 96.9494 39.9989C97.0114 39.9368 97.085 39.8876 97.166 39.8541C97.247 39.8205 97.3338 39.8032 97.4215 39.8032C97.5093 39.8032 97.5961 39.8205 97.6771 39.8541C97.7582 39.8876 97.8318 39.9368 97.8938 39.9988C97.9558 40.0609 98.005 40.1345 98.0386 40.2155C98.0722 40.2965 98.0894 40.3834 98.0894 40.4711V62.5766C98.0894 62.7537 98.0191 62.9236 97.8938 63.0489C97.7686 63.1741 97.5987 63.2445 97.4215 63.2445Z" fill="#122040"/>
<path d="M100.632 62.9094H19.5409C18.6111 62.9094 17.8574 63.6631 17.8574 64.5929V70.8357C17.8574 71.7655 18.6111 72.5192 19.5409 72.5192H100.632C101.562 72.5192 102.316 71.7655 102.316 70.8357V64.5929C102.316 63.6631 101.562 62.9094 100.632 62.9094Z" fill="#1D3B5E"/>
<path d="M102.314 70.5056V70.836C102.314 71.2824 102.137 71.7105 101.821 72.0262C101.506 72.3418 101.077 72.5192 100.631 72.5192H19.5387C19.0923 72.5191 18.6642 72.3417 18.3486 72.0261C18.033 71.7105 17.8556 71.2824 17.8555 70.836V70.5056H102.314Z" fill="#122040"/>
<path d="M36.6525 50.1174H2.7824C2.04439 50.1176 1.33668 50.4109 0.8149 50.9328C0.293121 51.4548 -2.53447e-08 52.1625 0 52.9006V69.7359C0.000128924 70.4738 0.293315 71.1815 0.815087 71.7032C1.33686 72.225 2.0445 72.5182 2.7824 72.5183H36.6525C37.3906 72.5184 38.0984 72.2253 38.6203 71.7035C39.1422 71.1817 39.4355 70.474 39.4357 69.7359V52.9006C39.4356 52.1624 39.1424 51.4546 38.6204 50.9327C38.0985 50.4107 37.3906 50.1175 36.6525 50.1174ZM32.9771 53.4726C32.8922 53.5576 32.7912 53.625 32.6802 53.6709C32.5691 53.7168 32.4501 53.7403 32.3299 53.7401H5.32652C5.08381 53.7401 4.85104 53.6437 4.67941 53.472C4.50779 53.3004 4.41138 53.0677 4.41138 52.8249C4.41138 52.5822 4.50779 52.3495 4.67941 52.1778C4.85104 52.0062 5.08381 51.9098 5.32652 51.9098H32.3299C32.5109 51.9099 32.6878 51.9636 32.8382 52.0642C32.9887 52.1647 33.106 52.3077 33.1752 52.4749C33.2445 52.6421 33.2626 52.826 33.2274 53.0035C33.1921 53.1811 33.105 53.3441 32.9771 53.4722V53.4726Z" fill="#122040"/>
<path d="M33.5842 50.1174H2.7824C2.04439 50.1176 1.33668 50.4109 0.8149 50.9328C0.293121 51.4548 -2.53447e-08 52.1625 0 52.9006V69.7359C0.000128924 70.4738 0.293315 71.1815 0.815087 71.7032C1.33686 72.225 2.0445 72.5182 2.7824 72.5183H33.5842C33.9496 72.5183 34.3114 72.4464 34.649 72.3065C34.9866 72.1667 35.2933 71.9618 35.5517 71.7034C35.81 71.445 36.015 71.1383 36.1548 70.8007C36.2946 70.4631 36.3666 70.1013 36.3666 69.7359V52.9006C36.3667 52.1625 36.0736 51.4547 35.5518 50.9328C35.03 50.4108 34.3222 50.1176 33.5842 50.1174ZM32.9764 53.4726C32.8914 53.5576 32.7905 53.625 32.6795 53.6709C32.5684 53.7168 32.4493 53.7403 32.3292 53.7401H5.32652C5.08381 53.7401 4.85104 53.6437 4.67941 53.472C4.50779 53.3004 4.41138 53.0677 4.41138 52.8249C4.41138 52.5822 4.50779 52.3495 4.67941 52.1778C4.85104 52.0062 5.08381 51.9098 5.32652 51.9098H32.3299C32.5109 51.9099 32.6878 51.9636 32.8382 52.0642C32.9887 52.1647 33.106 52.3077 33.1752 52.4749C33.2445 52.6421 33.2626 52.826 33.2274 53.0035C33.1921 53.1811 33.105 53.3441 32.9771 53.4722L32.9764 53.4726Z" fill="#2B557C"/>
<path d="M32.3182 57.1843H4.16065C3.31658 57.1843 2.63232 57.8686 2.63232 58.7126V67.0431C2.63232 67.8871 3.31658 68.5714 4.16065 68.5714H32.3182C33.1622 68.5714 33.8465 67.8871 33.8465 67.0431V58.7126C33.8465 57.8686 33.1622 57.1843 32.3182 57.1843Z" fill="#122040"/>
<g style="mix-blend-mode:multiply" opacity="0.5">
<path d="M6.36463 68.5714H4.16065C3.75531 68.5714 3.36658 68.4104 3.07996 68.1237C2.79334 67.8371 2.63232 67.4484 2.63232 67.0431V58.7126C2.63232 58.3073 2.79334 57.9186 3.07996 57.632C3.36658 57.3453 3.75531 57.1843 4.16065 57.1843H6.36463C5.9593 57.1843 5.57056 57.3453 5.28395 57.632C4.99733 57.9186 4.83631 58.3073 4.83631 58.7126V67.0431C4.83631 67.2438 4.87584 67.4425 4.95265 67.6279C5.02945 67.8133 5.14203 67.9818 5.28395 68.1237C5.42586 68.2657 5.59435 68.3782 5.77977 68.455C5.96519 68.5319 6.16393 68.5714 6.36463 68.5714Z" fill="#122040"/>
</g>
<path d="M5.32646 53.7409H3.54747C3.42729 53.7409 3.30829 53.7173 3.19726 53.6713C3.08623 53.6253 2.98534 53.5579 2.90036 53.4729C2.81539 53.3879 2.74798 53.287 2.70199 53.176C2.656 53.065 2.63232 52.946 2.63232 52.8258C2.63232 52.7056 2.656 52.5866 2.70199 52.4756C2.74798 52.3645 2.81539 52.2637 2.90036 52.1787C2.98534 52.0937 3.08623 52.0263 3.19726 51.9803C3.30829 51.9343 3.42729 51.9106 3.54747 51.9106H5.32646C5.20628 51.9106 5.08728 51.9343 4.97625 51.9803C4.86522 52.0263 4.76434 52.0937 4.67936 52.1787C4.59438 52.2637 4.52697 52.3645 4.48098 52.4756C4.43499 52.5866 4.41132 52.7056 4.41132 52.8258C4.41132 52.946 4.43499 53.065 4.48098 53.176C4.52697 53.287 4.59438 53.3879 4.67936 53.4729C4.76434 53.5579 4.86522 53.6253 4.97625 53.6713C5.08728 53.7173 5.20628 53.7409 5.32646 53.7409Z" fill="#122040"/>
<path d="M96.5299 53.0168C97.1864 56.6671 97.7818 62.2592 96.1127 62.7719C95.342 63.0085 91.1161 63.1838 86.5311 63.2319C85.5516 63.2421 84.5557 63.2463 83.5732 63.2446C82.263 63.2416 80.9773 63.2273 79.7881 63.1998C77.0031 63.1361 74.7463 62.9995 73.9379 62.7719C71.7271 62.1483 73.0736 49.5237 75.5861 42.8371C75.9167 41.9585 76.5255 41.2121 77.3198 40.7117C78.114 40.2113 79.0501 39.9843 79.9853 40.0654C81.4655 40.193 83.3478 40.3683 85.2263 40.576C86.4482 40.7119 87.6685 40.8619 88.7743 41.0216C89.97 41.1957 91.0327 41.3812 91.8207 41.5743C94.4054 42.2079 96.0998 42.7437 96.9902 43.7267C97.4713 44.2753 97.7364 44.9802 97.7358 45.7099C97.8414 48.1429 95.8742 49.3661 96.5299 53.0168Z" fill="white"/>
<path d="M85.9821 62.9209C85.3215 63.0204 84.4555 63.1341 83.5732 63.2445C82.2629 63.2416 80.9772 63.2273 79.7881 63.1998L80.6534 61.5747C80.6534 61.5747 86.438 60.9788 86.4273 57.5613C86.4166 54.1439 83.3945 50.1298 83.0176 47.149C82.756 45.0765 83.2607 41.9071 85.2262 40.5767C86.4482 40.7126 87.6685 40.8626 88.7742 41.0223C88.7849 41.9083 88.6544 43.2929 87.8865 44.407C86.6544 46.1954 88.2089 46.5966 89.0154 48.4407C89.8219 50.2849 90.4299 53.5076 90.5493 56.8458C90.6687 60.184 88.1304 62.5971 85.9821 62.9209Z" fill="#DBDBDB"/>
<path d="M96.53 53.0168C97.1865 56.6672 97.7819 62.2592 96.1128 62.772C95.3421 63.0085 91.1162 63.1838 86.5312 63.232C88.5249 62.9959 90.5828 62.5687 91.6421 61.7936C94.0861 60.0054 92.5959 57.3229 92.2383 52.4087C91.8806 47.4946 92.3294 46.5104 93.5495 44.5677C94.7408 42.6699 96.9903 43.7289 96.9903 43.7289C97.4715 44.2775 97.7365 44.9825 97.736 45.7122C97.8415 48.143 95.8743 49.3662 96.53 53.0168Z" fill="#DBDBDB"/>
<path d="M88.6113 63.5322C88.267 62.1422 87.1092 60.554 86.0382 59.3141C85.3932 58.5672 84.7079 57.8562 83.9852 57.1842C78.7336 51.3924 69.4081 49.3984 69.4081 49.3984C65.1114 48.079 54.0665 49.4568 46.8139 50.3335C43.9089 50.6846 41.6743 51.8446 39.4404 52.6506L39.4365 69.9635C43.9172 69.8735 49.9213 69.6508 55.4589 69.114C66.082 68.0841 80.2512 71.7928 86.0609 70.607C88.3847 70.1329 89.2998 66.3111 88.6113 63.5322Z" fill="white"/>
<path d="M88.6103 63.5321C88.266 62.1421 87.1083 60.554 86.0373 59.314C83.6927 59.4752 79.799 59.8266 76.2802 58.9007C71.586 57.6656 68.8321 54.8869 68.0183 55.3807C67.2045 55.8745 72.8377 59.3327 74.5342 61.0001C76.2308 62.6675 83.4771 65.6926 80.2505 66.8061C77.0239 67.9197 72.0857 65.5698 65.8892 64.8287C59.6928 64.0877 54.3728 66.3726 48.3641 65.1375C45.1834 64.4837 41.9823 65.2455 39.4346 65.3712V69.9632C43.9152 69.8732 49.9194 69.6505 55.4569 69.1137C66.0801 68.0838 80.2493 71.7925 86.0589 70.6068C88.3837 70.1329 89.2989 66.3111 88.6103 63.5321Z" fill="#DBDBDB"/>
<path d="M79.6813 33.2434C79.6813 33.2434 78.49 33.4194 78.3334 34.532C78.1768 35.6446 78.8593 37.5818 78.8593 37.5818C78.8593 37.5818 79.888 34.7345 79.6813 33.2434Z" fill="#657187"/>
<path d="M90.6203 54.6014C90.7419 55.8508 89.5974 59.4981 89.5974 59.4981C89.5974 59.4981 88.4749 59.5058 84.9558 58.4108C82.216 53.7772 72.279 50.3116 72.279 50.3116L71.2935 49.9676L69.668 49.3996C69.668 49.3996 69.7025 49.3617 69.7749 49.2861C70.0621 48.9899 70.9391 48.1117 72.5992 46.6777C73.9172 45.5399 75.7912 43.4013 76.6704 43.3106C77.543 43.2211 81.4431 44.3738 81.5087 44.3785L83.2741 44.7446C84.134 44.9367 85.4688 45.1081 86.153 45.6624C87.1148 46.4421 87.3896 47.0658 87.9986 47.8749C88.3711 48.3697 88.3003 48.6469 88.6424 49.1438C88.9967 49.6573 89.316 50.1942 89.5979 50.7507C90.4696 52.4572 90.4995 53.3522 90.6203 54.6014Z" fill="#3A59C9"/>
<path d="M84.6377 52.0181C84.6377 52.0181 84.8835 54.1613 84.7792 54.7834C84.5764 55.5955 84.3329 56.3969 84.0498 57.1846C83.6109 56.6958 83.136 56.2407 82.6289 55.8231C82.6571 55.7988 83.5513 55.0066 84.0009 54.6818C84.4568 54.3521 84.6377 52.0181 84.6377 52.0181Z" fill="#2A38B2"/>
<path d="M87.8915 40.3837C87.1301 42.1012 86.1828 41.6789 86.1828 41.6789C85.5303 44.5925 86.1527 45.6621 86.1527 45.6621C85.515 46.3003 84.7382 46.7821 83.8831 47.0698C83.028 47.3575 82.1179 47.4432 81.2242 47.3202C80.9778 47.2867 80.734 47.2359 80.4948 47.1683C80.431 47.1496 80.377 47.1067 80.3443 47.0488C80.3116 46.9909 80.3028 46.9226 80.3197 46.8583C80.7722 45.0613 79.938 43.1673 79.938 43.1673C85.8461 43.0265 86.0829 38.8016 86.0829 38.8016L86.549 38.5447C87.6047 38.0453 88.6533 38.6662 87.8915 40.3837Z" fill="#FDB48C"/>
<path d="M86.9165 38.6063C86.7687 38.884 86.5241 39.0977 86.2292 39.2071C86.0033 40.2606 85.5754 41.2671 84.8051 41.9545C84.4157 42.3008 83.9775 42.5882 83.5046 42.8074H83.5034C82.1543 43.4342 80.6962 43.4446 79.7619 43.1105C79.7322 43.0994 79.7021 43.0889 79.6736 43.077C79.502 43.011 79.3399 42.9228 79.1912 42.8147C79.1567 42.7891 79.1235 42.7616 79.0918 42.7325C79.085 42.7269 79.0789 42.7215 79.0721 42.7152C78.8574 42.4933 78.6892 42.2306 78.5773 41.9428C78.2192 41.0991 78.3143 40.2593 78.4903 39.3683L78.5997 38.8392L78.898 37.3936L78.8992 37.3792L78.9722 36.245L79.0772 34.5703C79.0811 34.509 79.0917 34.4483 79.1086 34.3892V34.3863C79.1295 34.2856 79.6957 31.7536 83.234 31.8334C86.8431 31.9168 88.5666 35.759 86.9165 38.6063Z" fill="#FDB48C"/>
<path d="M80.792 38.9918C80.792 38.9918 79.6168 38.5928 79.1684 38.9918C78.7201 39.3908 78.3345 40.5767 78.3345 40.5767L78.3379 40.8765C78.3379 40.8765 78.6882 40.4632 79.0092 40.0499C79.2238 39.8002 79.5147 39.6281 79.837 39.5601C80.1592 39.4922 80.4948 39.5322 80.792 39.674C81.3934 39.6025 82.0011 39.6025 82.6024 39.674C83.4264 39.8004 83.6029 40.6998 83.4838 41.4542C83.4838 41.4542 84.0109 41.2264 84.1261 40.8768C84.2414 40.5272 83.8635 39.4851 83.6112 39.303C83.3588 39.1209 82.5423 38.8007 80.792 38.9918Z" fill="#657187"/>
<path d="M82.69 35.6019L82.6494 36.1008C83.0894 36.0229 83.5427 36.0937 83.938 36.3019C84.5517 36.65 84.5808 36.7852 84.5808 36.7852L84.7773 36.5158C84.7773 36.5158 84.2738 35.4329 82.69 35.6019Z" fill="#657187"/>
<path d="M85.2657 41.4541C85.2657 41.4541 84.9253 43.9212 82.5589 44.7636C82.1558 44.9005 81.8102 45.1685 81.5772 45.5248C81.2599 46.0661 81.1354 46.699 81.2242 47.3201C80.9741 47.2861 80.7267 47.2342 80.4841 47.1648C80.4232 47.147 80.3718 47.1061 80.3406 47.051C80.3095 46.9958 80.3011 46.9306 80.3173 46.8694C80.7763 45.0702 79.9385 43.1672 79.9385 43.1672C80.8955 43.4536 81.9169 43.4432 82.868 43.1374C83.819 42.8316 84.655 42.2447 85.2657 41.4541Z" fill="#E98C78"/>
<path d="M87.4049 39.3092C87.4049 39.3092 86.2469 39.1229 86.4521 40.7964C86.4521 40.7964 86.508 39.6092 87.4049 39.3092Z" fill="#E98C78"/>
<path d="M86.5435 40.3111C86.5435 40.3111 86.7795 39.8069 87.1732 40.0814C87.1732 40.0814 87.1211 39.7847 86.6723 39.8047L86.5435 40.3111Z" fill="#E98C78"/>
<path d="M79.1685 36.0221L79.2657 36.38C79.51 36.1242 79.8425 35.9709 80.1957 35.9514C80.4262 35.9229 80.66 35.9585 80.8716 36.0542L80.9355 35.5889C80.6362 35.4462 80.2968 35.4114 79.9747 35.4903C79.6527 35.5693 79.3678 35.7572 79.1685 36.0221Z" fill="#657187"/>
<path d="M78.8588 37.5808C78.8588 37.5808 77.8481 40.8509 77.9921 41.714C78.0846 42.356 78.3953 42.9465 78.8719 43.3865C79.3484 43.8264 79.9619 44.089 80.6091 44.13C82.4175 44.2869 84.4851 43.3034 85.2658 41.4532C85.5333 40.8193 86.287 38.5028 86.287 38.5028L85.9223 37.9472L85.1686 38.991C85.1686 38.991 83.6592 42.0432 82.1328 42.3107C80.6065 42.5781 78.7898 41.7515 78.7202 40.7955C78.6883 39.722 78.7346 38.6476 78.8588 37.5808Z" fill="#657187"/>
<path d="M81.5328 38.6346C81.5689 38.6336 81.6033 38.6194 81.6296 38.5947C81.6559 38.57 81.6722 38.5366 81.6756 38.5007C81.6789 38.4648 81.6689 38.4289 81.6476 38.3998C81.6263 38.3707 81.5951 38.3505 81.5598 38.3428L81.0843 38.2286L81.5705 36.7185C81.5765 36.7 81.5787 36.6806 81.5771 36.6613C81.5756 36.6419 81.5702 36.6231 81.5613 36.6059C81.5525 36.5886 81.5403 36.5733 81.5256 36.5607C81.5108 36.5482 81.4937 36.5387 81.4752 36.5327C81.4568 36.5268 81.4373 36.5245 81.418 36.5261C81.3987 36.5277 81.3798 36.5331 81.3626 36.5419C81.3454 36.5508 81.33 36.5629 81.3175 36.5777C81.3049 36.5925 81.2954 36.6096 81.2895 36.628L80.7546 38.2898C80.7484 38.3092 80.7463 38.3296 80.7483 38.3498C80.7504 38.37 80.7566 38.3896 80.7665 38.4073C80.7765 38.425 80.7899 38.4404 80.8061 38.4527C80.8223 38.4649 80.8409 38.4737 80.8606 38.4785L81.491 38.6297C81.5047 38.6333 81.5187 38.635 81.5328 38.6346Z" fill="#E98C78"/>
<path d="M81.9897 41.4158C81.6202 41.509 81.2357 41.5263 80.8593 41.4668C80.4829 41.4072 80.1225 41.272 79.7998 41.0693C79.7998 41.0693 80.7495 42.2522 81.9897 41.4158Z" fill="#E98C78"/>
<path d="M82.3608 37.3354C82.3608 37.3354 82.3684 38.0687 83.233 38.1152C83.0426 38.0506 82.8672 37.9482 82.7174 37.8142C82.5675 37.6803 82.4463 37.5174 82.3608 37.3354Z" fill="#E98C78"/>
<path d="M80.7922 37.0757C80.7922 37.0757 80.7044 37.8036 79.8398 37.755C80.0361 37.7117 80.2217 37.6292 80.3853 37.5125C80.5489 37.3957 80.6873 37.2472 80.7922 37.0757Z" fill="#E98C78"/>
<path d="M80.3672 34.006C80.3672 34.006 82.2211 33.368 83.7139 34.006C82.6061 33.8197 81.475 33.8197 80.3672 34.006Z" fill="#E98C78"/>
<path d="M80.2646 34.5305C80.2646 34.5305 82.1183 33.8923 83.6113 34.5305C82.5036 34.3443 81.3724 34.3443 80.2646 34.5305Z" fill="#E98C78"/>
<path d="M79.5288 39.8667C79.5948 40.1288 79.726 40.3699 79.9103 40.5676C80.0945 40.7653 80.3258 40.9132 80.5825 40.9975C81.9322 41.3911 82.8923 40.0432 82.8923 40.0432C82.8923 40.0432 80.8612 40.5397 79.5288 39.8667Z" fill="white"/>
<path d="M80.3324 36.9034C80.3057 37.1484 80.1584 37.3335 80.0035 37.3167C79.8486 37.2999 79.745 37.0874 79.7718 36.8423C79.7985 36.5973 79.9459 36.4125 80.1005 36.429C80.2551 36.4455 80.3592 36.6583 80.3324 36.9034Z" fill="#122040"/>
<path d="M83.3002 37.1668C83.2732 37.4119 83.1261 37.5967 82.9713 37.5801C82.8164 37.5636 82.7128 37.3509 82.7396 37.1058C82.7663 36.8607 82.9134 36.6757 83.0683 36.6925C83.2231 36.7092 83.327 36.9217 83.3002 37.1668Z" fill="#122040"/>
<path d="M60.8413 49.4882C60.8912 49.1525 61.0393 48.8391 61.2668 48.5874C61.6374 48.1925 62.1332 47.938 62.6701 47.8671C63.207 47.7962 63.7519 47.9132 64.2123 48.1983C64.2405 48.2163 64.2685 48.2348 64.2964 48.2535L64.3373 48.2822C64.8683 48.6598 65.8294 49.7213 66.0018 50.0982C66.1926 50.43 66.4251 50.7362 66.6935 51.0092C66.5991 51.2893 66.2507 51.2596 66.2507 51.2596C65.993 51.2949 65.593 50.9593 65.4022 50.6357C65.1091 50.2736 64.7826 49.9399 64.427 49.6389C64.7624 50.0678 65.0527 50.5301 65.2935 51.0184C65.4751 51.3467 65.675 51.6645 65.8923 51.9703C65.4982 52.4288 64.8712 51.7617 64.543 51.3075C64.2755 50.9375 63.5704 50.0619 63.55 50.0342C63.8127 50.5427 64.1161 51.0291 64.4571 51.4886C64.6796 51.8208 64.9437 52.1231 65.2429 52.3882C65.0178 52.7918 64.4705 52.7286 63.8437 52.1876C63.2169 51.6467 62.2935 50.2951 62.2935 50.2951C62.4889 50.9353 62.7618 51.5493 63.1063 52.1232C63.2765 52.3301 63.0577 52.8057 62.3307 52.2934C61.6037 51.7811 61.1394 50.2141 61.1394 50.2141H61.1374C61.0875 50.2111 61.0387 50.1978 60.9942 50.1751C60.9496 50.1524 60.9101 50.1208 60.8783 50.0822C60.8465 50.0436 60.8229 49.9989 60.8091 49.9508C60.7953 49.9028 60.7915 49.8524 60.798 49.8028C60.8109 49.7004 60.8262 49.5869 60.8413 49.4882Z" fill="#FDB48C"/>
<path d="M89.5983 59.498C86.1504 62.8994 80.8716 63.3818 78.5584 62.1119C76.2453 60.842 72.8667 58.3512 72.8667 58.3512L74.1463 56.4304C74.1463 56.4304 79.7186 59.5885 81.0709 59.3096C81.6855 59.1757 82.2665 58.9184 82.7786 58.5531C83.2906 58.1879 83.7231 57.7224 84.0498 57.1849C86.1273 58.6152 88.1796 59.3161 89.5983 59.498Z" fill="#FDB48C"/>
<path d="M68.8395 56.1509C69.221 56.3395 70.5874 57.4993 71.3418 57.8042C71.723 57.9688 72.1207 58.0919 72.5283 58.1713L73.2577 58.562L73.3763 58.6255C73.3763 58.6255 74.2565 57.0208 74.2742 56.6075C74.278 56.5816 74.2733 56.5551 74.2608 56.5321C74.2566 56.5259 74.251 56.5208 74.2443 56.5173L74.2419 56.516C74.2058 56.4937 74.1736 56.4656 74.1466 56.4329H74.1453C74.085 56.3608 74.0402 56.2769 74.0138 56.1866C73.9636 56.0014 73.9553 55.8074 73.9895 55.6187C74.095 54.9051 74.1558 54.3719 73.645 53.9296C73.1342 53.4874 72.7889 53.2119 72.6428 52.9787C72.4967 52.7456 71.4456 52.4701 71.2944 52.4985C71.1432 52.527 71.0498 52.9549 71.6041 53.28C72.1585 53.605 72.5438 53.997 72.4529 54.0901C72.362 54.1832 72.0396 54.0257 71.6377 53.8209C71.2796 53.6226 70.9552 53.3687 70.6766 53.0687C70.4675 52.8513 69.2752 51.5156 68.77 51.2114C68.2647 50.9072 68.1738 50.8343 68 51.0106C67.8261 51.1869 68.3041 51.8102 68.6654 52.1334C68.9482 52.3872 69.82 53.2097 69.7527 53.313C69.6554 53.4645 68.1116 52.0974 67.787 51.8377C67.4624 51.578 66.9025 51.1674 66.7347 51.5946C66.5932 51.9556 68.1257 53.0563 68.3853 53.3135C68.6427 53.5189 68.8754 53.7535 69.0787 54.0125C69.1543 54.1949 68.8818 54.065 68.7627 54.0043C68.3154 53.6915 67.8887 53.3504 67.485 52.9831C67.1881 52.6899 66.8269 52.351 66.6219 52.5034C66.4169 52.6559 66.4906 52.9802 67.2249 53.6004C67.9591 54.2206 68.4891 54.722 68.7284 54.8999C68.9676 55.0779 68.7556 55.2403 68.4818 55.1049C68.2081 54.9695 67.2176 54.2107 67.0216 54.2693C66.8256 54.3279 66.6934 54.6383 67.0926 54.9914C67.6386 55.4299 68.2233 55.818 68.8395 56.1509Z" fill="#FDB48C"/>
<path d="M74.7267 46.9131L72.2791 50.3116L71.293 49.9671C72.805 49.0699 74.664 46.9834 74.7267 46.9131Z" fill="#2A38B2"/>
<path d="M85.7291 33.8645C85.5766 34.0956 85.479 34.3585 85.4439 34.6331C85.4087 34.9077 85.4369 35.1867 85.5263 35.4487C85.8351 36.341 85.9999 36.786 85.9999 36.786L85.8558 38.9926L86.8186 38.4599C86.8186 38.4599 88.5934 38.1159 88.1529 35.1079C87.9827 33.9452 85.7291 33.8645 85.7291 33.8645Z" fill="#657187"/>
<path d="M79.4173 33.3124C79.4173 33.3124 78.1739 31.7374 79.0095 30.8524C79.8452 29.9674 84.9835 30.8357 86.4282 31.752C88.6344 33.1517 88.0547 34.8104 88.0547 34.8104L85.729 33.8641C85.729 33.8641 85.267 33.7224 83.4037 33.2431C82.108 32.91 80.7594 33.6171 79.4173 33.3124Z" fill="#657187"/>
<path d="M28.0116 16.7429C25.5127 16.9617 25.3372 17.1375 25.1184 19.6361C24.8995 17.1375 24.7238 16.9617 22.2251 16.7429C24.724 16.5241 24.8995 16.3483 25.1184 13.8496C25.3362 16.3483 25.5127 16.525 28.0116 16.7429Z" fill="white"/>
<path d="M91.9323 31.955C93.5302 31.955 94.8256 30.6596 94.8256 29.0617C94.8256 27.4638 93.5302 26.1685 91.9323 26.1685C90.3344 26.1685 89.0391 27.4638 89.0391 29.0617C89.0391 30.6596 90.3344 31.955 91.9323 31.955Z" fill="white"/>
</svg>
